<?xml version="1.0" encoding="utf-8"?>
<!-- Generator: Adobe Illustrator 23.0.5, SVG Export Plug-In . SVG Version: 6.00 Build 0)  -->
<svg version="1.1" id="Layer_1" xmlns="http://www.w3.org/2000/svg" xmlns:xlink="http://www.w3.org/1999/xlink" x="0px" y="0px"
	 viewBox="0 0 600 310" style="enable-background:new 0 0 600 310;" xml:space="preserve">
<style type="text/css">
	.st0{fill:#F7B70A;}
	.st1{fill:#FFFFFF;}
	.st2{fill:#F7C12D;}
</style>
<g>
	<g>
		<g>
			<path class="st0" d="M235.5,125.3c2.6-1.6,4.4-0.2,5.9,1c4.1,3,8.6,5.2,13.1,7.4c3.6,1.8,7.1,2.8,7.9,8.1c0.6,3.9,4.8,5.4,8.8,4
				c4.8-1.7,9.3-1.2,14.2,0c44.7,10.9,85.7-26.7,78.9-72.2c-0.2-1.2-0.2-2.4-0.3-3.7c9.1,3,15.4,11.9,14.1,20.9
				c-4.1,30-19.6,52.1-47.6,63.9c-27.9,11.6-54.2,7.2-78.3-11.2C245.5,138.5,240.5,132,235.5,125.3z"/>
			<path class="st0" d="M364.2,38.7c-9.7-5.2-19.7-9.1-30.1-12.3c-2-0.6-1.7-2.2-2.2-3.7c-1.3-4.3-4.3-6.8-8.6-5.1
				c-5.3,2-10.4,1.4-15.8,0.9C268,14.8,235.3,46.3,237.1,86c0.1,1.1,0.7,2.3-0.2,3.4c-9.9-5.7-13.8-14.4-11.3-24.8
				c11-45.2,57.3-70.7,101-55.3C342.4,14.8,355,24.5,364.2,38.7z"/>
			<path class="st1" d="M9.8,220.2c0,7.9,0,15.8,0,23.6c0,1.4-0.1,2.8,0,4.2c0.5,3.6-0.4,5.2-4.6,5.2c-4.2,0-5.1-1.3-5.1-5.3
				c0.2-15.8,0-31.6,0.2-47.3c0-1.7-1.6-4.9,1.8-4.9c3.1-0.1,6.9-1.9,8.9,2.8c5.1,11.4,10.5,22.6,15.9,33.9c1.1,2.3,1.8,4.8,4.3,7.2
				c4.1-8.6,8-16.9,12-25.3c2.6-5.5,5.2-10.9,7.7-16.4c1.9-4,5.4-2,8.2-2.1c3.2-0.1,1.9,2.7,1.9,4.3c0.1,16.3-0.1,32.6,0.2,48.9
				c0.1,4.2-1.9,4.2-5,4.3c-3.1,0-4.7-0.4-4.5-4.2c0.3-8.1,0.1-16.3,0.1-24.5c0-1.6,0.4-3.4-1.2-5.8c-4.9,10.4-9.5,20.1-13.9,29.9
				c-1.3,3-2.5,4.8-6.3,4.6c-2.9-0.2-4.2-1.1-5.4-3.7c-4.1-9.3-8.5-18.6-12.7-27.9c-0.3-0.6-0.7-1.1-1.1-1.6
				C10.8,220.1,10.3,220.2,9.8,220.2z"/>
			<path class="st0" d="M380,115.9c1.6-4.9,2.3-8.7,4.1-12c6.1-11.8,2-21.7-5.8-30.4C364,57.4,345,50.6,324.2,47.7
				c-3-0.4-3.1,0.9-2.7,3.2c0.4,2.5-0.6,4.1-3.1,2.2c-7.1-5.5-14.1-11.1-21-16.8c-2.2-1.8-1.3-3.2,1.1-4.1
				c8.3-3.1,16.5-6.1,24.8-9.2c2.6-1,4.1,0.1,2.8,2.6c-2.3,4.5,1,4.4,3.5,5.1c20.7,5.3,39.1,14.7,53.5,30.9c8,9,12.9,19.2,12.1,31.6
				C394.4,102.9,389.6,110.1,380,115.9z"/>
			<path class="st0" d="M226.5,42.5c-1.7,3.3-3.1,6.9-5.2,10c-6.6,9.6-6,19.1-0.3,28.8c6,10.1,14.5,17.6,24.5,23.4
				c8.1,4.7,16.6,8.6,25.7,11c2.9,0.8,4.2,0.6,4.1-2.8c-0.2-3.8,1.9-3.8,4.1-1.8c6.3,5.7,12.4,11.6,18.6,17.4c1.9,1.8,1.4,3-0.9,3.7
				c-8.8,2.7-17.5,5.4-26.3,8c-1.6,0.5-4.3,0.6-2.4-2.4c2.6-4-0.5-4.6-3-5.6c-14.7-6-28.3-13.9-39.3-25.5
				c-10.5-11-18.7-23.5-18-39.5C208.4,55.1,214.8,46.8,226.5,42.5z"/>
			<path class="st1" d="M381.8,260.1c5,1.6,9.5,2.6,14.2,1.9c6-0.9,9.6-5,9.4-10.5c-0.1-2.1-0.3-3.5-3-1.8
				c-9.5,5.8-18.3,5.1-25.7-1.7c-6.5-6-8.5-18.2-4.4-26.6c4.1-8.5,13.4-13.1,22.9-11.4c1.5,0.3,2.9,1,4.4,1.4
				c2.2,0.5,4.7,5.4,6.6-0.7c0.5-1.4,4.6-0.8,6.9-0.2c2,0.5,1.3,2.6,1.3,4c0.1,12.3,0.2,24.6,0,36.9c-0.2,11-6.7,17.6-17.8,18.2
				c-2.6,0.1-5.2,0.1-7.8-0.2C381.8,268.7,381.1,267.8,381.8,260.1z M405.7,231.7c0-8.5-5.4-14.4-13.1-14.3
				c-7.7,0.1-13.6,6.2-13.6,14.1c0,8.2,5.7,14.2,13.4,14.2C400.3,245.8,405.6,240.2,405.7,231.7z"/>
			<path class="st1" d="M113,231.6c0,5.9,0,11.8,0,17.7c0,1.6,0.6,4-2.2,3.6c-2.3-0.4-5.9,2.3-6.7-2.2c-0.4-2.7-1.2-2.3-2.8-1
				c-9.5,7.6-20,3.4-25.6-1.6c-7.1-6.4-8.7-18.4-4-27.3c4.3-8.3,14-12.7,23.3-10.6c1.8,0.4,3.5,1.4,5.2,2.3c1.8,1,3,3,4.2-0.9
				c0.9-2.8,4.6-1.2,7-1.2c2.4,0,1.6,2.2,1.6,3.6C113,219.9,113,225.8,113,231.6z M91,245.6c7.9,0.1,13.3-5.6,13.4-14
				c0-8.2-5.2-14-12.7-14.2c-7.9-0.2-14,5.9-14.2,14.1C77.4,239.4,83.3,245.6,91,245.6z"/>
			<path class="st1" d="M171.4,253.8c-12.1-0.1-21.8-10-21.8-22.4c0-12.2,10-21.9,22.4-21.9c11.8,0,21.7,10,21.8,21.9
				C193.9,243.9,183.8,253.9,171.4,253.8z M185,231.9c0.1-8.2-5.6-14.5-13.2-14.5c-7.7,0-13.4,6-13.5,14.2
				c-0.1,8.1,5.2,13.9,12.9,14C179,245.8,184.9,239.9,185,231.9z"/>
			<path class="st1" d="M364.6,231.6c0.1,12-9.9,22.1-22.1,22.2c-12.1,0.2-22.3-9.9-22.3-22c0-12.2,9.9-22.2,22.1-22.3
				C354.5,209.4,364.5,219.3,364.6,231.6z M355.6,231.6c0-8.2-5.7-14.1-13.4-14.1c-7.2,0-13.2,6.5-13.2,14
				c0.1,8.3,5.6,14.1,13.4,14.2C350.2,245.7,355.6,239.9,355.6,231.6z"/>
			<path class="st1" d="M289.9,220c0,6.9,0.1,13.9-0.1,20.8c-0.1,2.9,0.7,4,3.7,3.8c5.7-0.2,11.4,0.1,17.1-0.1
				c3.5-0.2,3.4,1.8,3.4,4.2c0,2.3,0.4,4.4-3.3,4.3c-9-0.2-18-0.1-27,0c-2.4,0-3.3-0.7-3.3-3.3c0.1-17,0.2-34,0-50.9
				c0-4,2.3-3.4,4.7-3.4c2.2,0.1,4.9-1,4.7,3.2C289.7,205.8,289.9,212.9,289.9,220z"/>
			<path class="st1" d="M563.2,219.9c-3.5,2.2-6.4,3-10.5-0.2c-5.5-4.3-13.8-2.4-17.8,2.8c-4.2,5.5-3.9,14.3,0.9,19.1
				c4.9,5,12.9,5.6,18.4,1.2c1.1-0.8,1.8-2.3,3.5-1.9c1.9,0.4,4.2,0.9,4.9,2.5c0.9,1.9-1.2,3.4-2.4,4.6c-6.2,6.1-16.9,7.4-25.2,3.1
				c-8.8-4.5-12.9-13.1-11.3-23.5c1.3-8.7,8.7-16.1,17.6-17.6C550.8,208.3,558.2,211.7,563.2,219.9z"/>
			<path class="st1" d="M453.6,253.9c-4.5-0.2-9.7-2-13.1-7.3c-0.9-1.5-2.9-3.5-0.3-4.7c1.9-0.9,4.6-3.2,6.7,0.3
				c2,3.2,5,4.9,8.8,4.3c2.5-0.4,5.3-1,5.9-4.2c0.6-3.4-1.4-5.1-4.1-6.3c-4.2-2-8.9-2.8-12.6-5.9c-7.2-6.2-5.5-16.1,3.3-19.4
				c6.1-2.3,14.5-0.4,18.1,4.1c1.1,1.4,3.7,3.6,1.4,5c-1.7,1.1-4.9,3.5-7.2-0.1c-1.6-2.5-4.1-3-6.8-2.6c-2.2,0.3-4.1,1-4.4,3.6
				c-0.3,2.3,0.6,4.1,2.7,5.1c2.7,1.2,5.4,2.3,8.1,3.4c8.4,3.2,11.6,7.4,10.5,13.8C469.6,249.4,463.4,253.9,453.6,253.9z"/>
			<path class="st1" d="M231.5,253.9c-4.7-0.4-10-2-13.1-7.4c-0.7-1.3-3.3-3.3-0.3-4.6c2-0.8,4.6-3.2,6.7,0.4c2.3,4,6,4.9,10.3,3.8
				c2.3-0.6,4.3-1.9,4.4-4.5c0.2-2.7-1.4-4.6-3.8-5.6c-2.4-1-4.9-1.7-7.3-2.8c-8.9-4-12.1-9.6-9.4-16.3c2.6-6.4,12.1-9.3,19.8-6.1
				c2,0.8,3.8,1.9,5,3.6c1.2,1.6,3.6,3.9,1.8,5.1c-1.8,1.3-5.1,3.7-7.6,0c-1.3-1.9-3.3-2.6-5.4-2.7c-2.6-0.1-4.9,0.7-5.6,3.6
				c-0.7,2.6,0.8,4.4,2.9,5.5c2.3,1.2,4.8,2,7.2,2.9c9,3.3,12.4,7.7,11.1,14.5C247.2,249.7,240.9,253.9,231.5,253.9z"/>
			<path class="st1" d="M599.8,241.4c0.8,4-1.3,6.7-4.2,8.9c-8.4,6.4-21.4,4.2-25.9-4.3c-0.6-1.2-2.7-3-0.5-3.8
				c2-0.8,4.7-3.3,6.9-0.2c2.2,3.1,4.8,4.9,8.7,4.7c3.1-0.1,5.5-1.5,6.3-4.5c0.8-3.1-1.2-4.8-3.8-5.9c-2.6-1-5.2-2-7.7-3.1
				c-8.1-3.5-11.5-9.6-8.9-16.2c2.4-5.9,11.4-9.1,18.4-6.5c2.4,0.9,4.9,1.9,6.4,4.2c1,1.5,3.9,3.3,1.7,5c-1.8,1.4-5.1,3.9-7.5-0.1
				c-1.3-2.2-3.5-2.8-5.9-2.6c-2.4,0.2-4.5,1-5.1,3.7c-0.6,2.6,0.8,4.4,3.1,5.3c3.8,1.6,7.7,3.2,11.5,4.8
				C598,232.8,600.6,236.1,599.8,241.4z"/>
			<path class="st1" d="M139.1,245.6c2.7-0.5,4.7-1.6,4.6,1.2c-0.1,2,1.2,4.6-1.8,5.9c-8.4,3.7-15.9-1.2-16-10.5
				c-0.1-6.8-0.1-13.5,0-20.3c0-2.4,0-4.6-3.4-4.3c-3.1,0.3-2.6-2-2.6-3.8c0-1.7-0.2-3.8,2.4-3.5c4.4,0.5,3.7-2.6,3.5-5
				c-0.3-3.5,0.3-5.3,4.6-5.3c4.6-0.1,4.8,2.2,4.4,5.4c-0.5,3.8,0.7,5.5,4.7,4.9c3-0.5,4.3,0.6,4.3,3.9c0,3.5-1.8,3.7-4.2,3.4
				c-4-0.6-5.1,1.1-4.9,5c0.3,5.9,0.2,11.8,0,17.7C134.8,244.1,136.1,246.2,139.1,245.6z"/>
			<path class="st1" d="M481.7,232.1c0-3.1,0-6.2,0-9.4c0.1-2.9,0.5-5.6-4-5.3c-2.8,0.2-1.8-2.4-1.9-3.9c-0.1-1.5-0.4-3.6,2-3.3
				c4,0.5,4.3-1.9,3.9-4.7c-0.6-4.3,1-5.7,5.4-5.6c3.6,0.1,4.1,1.8,3.7,4.5c-0.6,4.3,0.5,6.7,5.4,5.7c2.9-0.6,3.5,1.1,3.4,3.6
				c0,2.4-0.2,4.3-3.3,3.7c-5.3-1-5.9,1.9-5.7,6.2c0.3,5.4,0.2,10.8,0,16.1c-0.2,4.2,1.1,6.3,5.6,5.6c1.3-0.2,3.5-1.3,3.2,1.6
				c-0.2,2,1.3,4.5-1.9,5.7c-9,3.4-15.8-1.1-15.9-10.8C481.7,238.7,481.7,235.4,481.7,232.1z"/>
			<path class="st1" d="M200.9,224.1c0-8.5,0.2-17-0.1-25.5c-0.1-3.7,1.7-3.9,4.5-3.8c2.7,0.1,5-0.3,5,3.8c-0.2,17-0.2,34,0,51
				c0,4.1-2.4,3.3-4.7,3.3c-2.3,0-4.8,0.7-4.7-3.4C201.1,241.1,200.9,232.6,200.9,224.1z"/>
			<path class="st1" d="M423.1,232c0-6.1,0.2-12.1-0.1-18.1c-0.2-3.8,1.9-3.7,4.5-3.7c2.5,0,4.7-0.2,4.7,3.6
				c-0.2,12.1-0.2,24.2,0,36.3c0.1,3.9-2.5,2.9-4.6,2.9c-2,0-4.7,1.1-4.6-2.9C423.3,244.1,423.1,238,423.1,232z"/>
			<path class="st1" d="M516,231.6c0,6.1-0.2,12.1,0.1,18.2c0.2,3.7-2,3.3-4.3,3.2c-2.2-0.1-4.9,1-4.9-3.2c0.2-12.1,0.2-24.2,0-36.3
				c-0.1-4.1,2.6-3.1,4.9-3.3c2.3-0.1,4.4-0.3,4.3,3.3C515.8,219.5,516,225.6,516,231.6z"/>
			<path class="st2" d="M297.6,300.6c-4.4,5.7-4.4,5.7-8.7,0.2c-1.5,0.3-1,1.6-1.2,2.5c-0.3,1.3-1.1,1.7-2.3,1.5
				c-1.3-0.1-1.6-1.1-1.6-2.2c0-4.1,0-8.3,0-12.4c0-1.3,0.3-2.4,1.8-2.6c1.5-0.2,2.1,0.7,2.7,1.9c1.4,3.1,3,6.1,4.7,9.5
				c2.8-3,3.2-6.5,4.9-9.2c0.8-1.2,1.6-2.4,3.2-2.1c1.9,0.3,1.6,2,1.7,3.3c0,3.1,0.2,6.2,0,9.3c-0.1,1.6,1.2,4.2-1.8,4.6
				C297.8,305.3,299.1,302.1,297.6,300.6z"/>
			<path class="st2" d="M330.7,305c-4.9,0-9-4-9-8.8c0-4.9,4-8.8,9.1-8.7c5,0,9,4,9,8.9C339.7,301.4,335.9,305,330.7,305z
				 M335.9,296.5c-0.1-3.3-1.6-5.5-4.9-5.5c-3.5-0.1-5.6,2.1-5.4,5.5c0.1,3,1.9,5.2,5.3,5.2C334.2,301.8,335.6,299.6,335.9,296.5z"
				/>
			<path class="st2" d="M146.2,296.5c0-0.9,0-1.7,0-2.6c0-5.8,4.6-8.7,10.1-6.3c0.5,0.2,1.1,0.9,1.2,1.4c0.2,1-0.5,1.6-1.4,1.8
				c-0.8,0.2-1.7,0.2-2.6,0.3c-1.2,0.1-2.6-0.1-2.8,1.6c-0.2,1.8,1.3,1.7,2.4,1.8c1,0.1,2.2,0,2.4,1.4c0.2,1.8-1.3,1.7-2.4,1.8
				c-1.6,0-2.7,0.5-2.5,2.4c0.2,2,1.8,1.6,3.2,1.8c1.4,0.2,3.7-0.4,3.6,1.8c-0.1,2.2-2.4,1.4-3.8,1.4
				C144.5,304.9,146.4,305.7,146.2,296.5z"/>
			<path class="st2" d="M360.4,287.6c2.3,0.6,2.8,2.8,3.6,4.6c0.9,2,0.9,5.2,3.3,5.4c2.4,0.2,1.7-3.4,3-4.9c1.5-1.8,1.4-6.4,4.7-4.8
				c2.3,1.1-0.4,4.2-1.2,6.3c-1.1,2.9-2.4,5.8-3.8,8.5c-1.6,3-3.8,3.1-5.3,0.1c-2.2-4.1-3.9-8.5-5.8-12.8
				C358.4,288.9,358.5,287.7,360.4,287.6z"/>
			<path class="st2" d="M234.4,305.3c-2.1,0-3.6-0.6-4.9-2c-0.7-0.7-1.8-1.4-0.9-2.6c0.7-0.9,1.8-0.9,2.8-0.1
				c1.4,1.3,3.4,2.2,4.4,0.4c1.3-2.5-1.5-3-3.1-3.8c-3-1.6-5.8-3.6-3.4-7.2c2.1-3.2,5.5-3.2,8.8-1.4c0.9,0.5,1.9,1.3,1.6,2.4
				c-0.4,1.1-1.5,1.3-2.6,0.9c-1.3-0.5-3.1-2.1-3.8,0.2c-0.8,2.4,1.9,2.4,3.3,3.1c2.7,1.4,4.9,3,3.9,6.4
				C239.5,304.6,236.8,305,234.4,305.3z"/>
			<path class="st2" d="M395.1,296.4c0-0.5,0-1,0-1.6c0-7.7,0.7-8.2,8.2-7.3c1.2,0.1,2.7-0.1,2.6,1.7c-0.1,1.6-1.3,1.8-2.6,1.9
				c-0.5,0-1,0-1.6,0c-1.2,0.1-2.6,0-2.7,1.7c-0.1,1.8,1.4,1.6,2.6,1.7c1.1,0.1,2.2,0.2,2.4,1.5c0.2,1.5-1,1.6-2.1,1.6
				c-1.6,0.1-3.3,0.1-3,2.5c0.3,2.4,2.3,1.5,3.7,1.7c1.3,0.2,3.3-0.3,3.3,1.6c0,2.4-2.3,1.5-3.6,1.6
				C395.1,305.3,395.1,305.3,395.1,296.4z"/>
			<path class="st2" d="M183.1,287.5c1.4,0,2.8-0.2,4.1,0.1c1.7,0.4,2.4,2.4,0.8,2.8c-5,1.1-3.2,4.7-3.8,7.7
				c-0.4,2.3,2.1,6.7-2.1,6.6c-4.1-0.1-1.5-4.4-2-6.8c-0.5-2.8,1-6.1-3.4-7.5c-1.7-0.5-0.4-2.5,1.2-2.7
				C179.6,287.4,181.4,287.6,183.1,287.5C183.1,287.5,183.1,287.5,183.1,287.5z"/>
			<path class="st2" d="M478.9,287.5c1.4,0,2.8-0.2,4.1,0c1.7,0.3,2.7,2.3,1.1,2.7c-5.8,1.5-3.2,5.9-3.7,9.2c-0.1,0.8,0,1.7,0,2.6
				c0,1.4,0,2.9-2.1,2.8c-1.7-0.1-1.6-1.5-1.7-2.7c0-2.6,0-5.2,0-7.8c0-1.4,0.2-2.9-1.8-3.2c-1.4-0.2-3.1-0.4-2.5-2.3
				c0.5-1.6,2.2-1.3,3.6-1.4C476.8,287.4,477.9,287.4,478.9,287.5C478.9,287.5,478.9,287.5,478.9,287.5z"/>
			<path class="st2" d="M116.9,296.2c0-2.1,0-4.2,0-6.3c0-1.4,0.6-2.4,2.1-2.3c1.4,0.1,1.6,1.2,1.6,2.2c0,1.7,0,3.5,0,5.2
				c0,3.6-1,7.8,5.1,6.8c1-0.2,1.6,0.6,1.7,1.6c0,0.4-0.4,1.2-0.7,1.2c-2.9,0.1-6,0.5-8.8-0.2c-1.9-0.5-0.9-3-1-4.7
				C116.8,298.6,116.9,297.4,116.9,296.2C116.9,296.2,116.9,296.2,116.9,296.2z"/>
			<path class="st1" d="M512.1,202.5c-3.3,0.5-5.2,0-5.2-3.8c-0.1-4,2.1-3.9,4.9-3.9c2.7,0,4.5,0.1,4.4,3.7
				C516,201.9,515.3,203.6,512.1,202.5z"/>
			<path class="st1" d="M426.8,202.6c-2.8,0.6-3.7-0.7-3.8-3.9c-0.2-4.1,2-3.8,4.8-3.9c3.2-0.2,4.5,0.7,4.5,4.3
				C432.3,203.5,429.6,202.6,426.8,202.6z"/>
			<path class="st2" d="M453.2,296.4c0,2.1,0,4.1,0,6.2c0,1.4-0.4,2.4-2.1,2.3c-1.3-0.1-1.6-1.1-1.6-2.2c0-4.3,0-8.6,0-12.9
				c0-1.2,0.5-2,1.8-2c1.3,0,1.9,0.8,1.9,2C453.2,291.9,453.2,294.1,453.2,296.4z"/>
		</g>
	</g>
	<g>
		<g>
			<path class="st1" d="M268.2,76.3c0.1,0,0.2-0.1,0.3-0.1c0.2,0.1,0.5,0.2,0.7,0.2c0.9,0.1,1.1,0.6,1.1,1.5
				c-0.1,1.1-0.2,2.2-0.1,3.4c0,0.1,0,0.3,0,0.4c-0.1,0.5-0.2,0.7-0.8,0.5c-0.3-0.1-0.6-0.1-0.9-0.2c-0.1-0.1-0.2-0.1-0.3-0.2
				c-0.1,0-0.1-0.1-0.2-0.1c0-1.7,0-3.4,0-5.2C268,76.3,268.1,76.3,268.2,76.3z"/>
			<path class="st1" d="M268.3,99c0-1.2,0-2.3,0-3.5c0.1-0.1,0.2-0.2,0.3-0.3c1,0.1,2,0.6,3,0.9c4.4,1.5,8.8,3,13.3,4.5
				c0.1,0.1,0.2,0.2,0.4,0.1c0.2,0,0.4,0,0.5,0.1c0.3,0.2,0.6,0.2,0.9,0c0.2,0,0.4-0.1,0.5-0.1c0.1,0.1,0.3,0,0.4-0.1
				c0.1,0,0.2,0,0.4-0.1c0.2,0,0.3,0,0.4-0.1c0.4-0.1,0.8-0.2,1.3-0.3c0.5-0.1,1.1-0.2,1.6-0.3c1-0.2,2.1-0.5,3.1-0.7
				c0.5-0.1,0.6-0.5,0.5-0.8c-0.1-0.4-0.5-0.2-0.7-0.1c-1.3,0.3-2.7,0.4-4,0.9c-0.6,0.1-1.1,0.2-1.7,0.3c-0.1-0.1-0.2-0.1-0.3-0.2
				c0-2.2,0.1-4.4,0-6.6c0.1-0.2,0.1-0.4,0-0.6c0-0.5,0-0.9,0.1-1.4c0-0.4-0.1-0.6-0.5-0.4c-1.1,0.5-2.4,0.9-3.4,1.6
				c-0.4,0-0.5,0.3-0.6,0.5c-0.5,0.3-0.6,0.8-0.6,1.3c-0.2,0.3-0.1,0.6-0.1,1c0,1.4,0,2.8-0.1,4.3c-3.3-1-6.5-2-9.8-3
				c-0.8-0.2-1.1-0.7-1.1-1.5c0-0.7-0.1-1.3-0.1-2c0-0.1,0-0.3,0-0.4c0-1.4-1.1-2.2-1.9-3.1c0-1.9,0-3.8,0-5.8
				c0-0.1,0.1-0.1,0.1-0.2c0.5,0,1-0.1,1.5-0.1c0.4,0,0.7,0.1,1.1,0.1c0.4,0.2,0.7,0.2,1.1,0.1c0.4,0,0.7,0.1,1.1,0.1
				c0.4,0.2,0.7,0.2,1.1,0.1c0.4,0,0.7,0.1,1.1,0.1c0.4,0.2,0.7,0.2,1.1,0.1c0.3,0,0.6,0,0.9,0.1c0.6,0.2,1.1,0.3,1.7,0.1
				c0.2,0,0.5,0,0.7,0.1c0.5,0.2,1,0.2,1.5,0.1c0.2,0,0.5,0,0.7,0.1c0.5,0.2,1,0.2,1.5,0.1c0.2,0,0.5,0,0.7,0.1
				c1.1,0.3,1.1,0.2,1.4-1.3c0-0.1,0.1-0.2,0.1-0.3c0.3-0.4,0.4-0.8,0.3-1.3c0.4-0.8,0.5-1.6,0.7-2.4c0.1-0.1,0.2-0.2,0.1-0.4
				c0.3-0.9,0.5-1.8,0.8-2.8c0.1-0.1,0.2-0.2,0.1-0.4c0.3-1,0.7-1.9,0.8-2.9c0.4-0.7,0.6-1.4,0.7-2.2c0-0.4-0.2-0.4-0.5-0.3
				c-0.1,0-0.3,0-0.4,0c-0.5,0-1,0-1.5,0.1c-1.4,0-2.7,0.1-4,0.4c-1.7,0-3.3,0.2-5,0.4c-0.2,0-0.4,0-0.6,0.1
				c-0.9,0.1-1.9,0.2-2.8,0.2c-0.4,0-0.8,0.1-0.9-0.5c0.1-0.1,0.2-0.2,0.3-0.3c1.2-0.9,2.3-2,3.4-3.1c0.3-0.1,0.5-0.3,0.6-0.6
				c0.7-0.6,1.4-1.1,2-1.7c0.9-0.9,1.9-1.4,3.2-1.6c1.8-0.3,3.5-0.7,5.3-1c0.1,0,0.2,0,0.4-0.1c3.6-0.5,7.1-1.2,10.7-1.9
				c0.2,0,0.4,0.1,0.6-0.1c0.5-0.1,1-0.2,1.5-0.3c0.3,0,0.5,0,0.8,0c0.4,0.3,0.3,0.8,0.3,1.3c-0.2,1.3-0.3,2.6-0.5,3.8
				c-0.2,1.2-0.1,2.3,0.8,3.2c0.5,0.5,0.4,1.2,0.5,1.8c-0.1,0.1-0.1,0.3,0,0.4c-0.1,3.6-0.1,7.1,0,10.7c-0.1,0.1-0.1,0.2,0,0.4
				c-0.1,3.5-0.1,7,0,10.5c-0.1,0.2-0.2,0.4-0.3,0.6c-0.4,0-0.7,0-1.1,0.1c-0.1-0.1-0.3-0.1-0.4,0.1c-0.7,0-1.3,0.2-1.9,0.6
				c0.4,0.5,1.2,0.2,1.5,0.9c-0.5,0.3-1.1,0.3-1.4,0.8c-0.2,0.1-0.4,0.2-0.5,0.4c-1.9,2.2-2.3,4.8-1.8,7.6c0,0.1,0,0.3,0.1,0.4
				c0.2,1.2,0.6,2.3,1.5,3.1c0.1,0.3,0.4,0.4,0.7,0.5c0.2,0.3-22.5-6.6-22.2-6.6c0.1,0.1,0.1,0.3,0.1,0.5c-0.2,0-0.3,0.1-0.5,0.1
				c-0.2,0.1-0.4,0.1-0.6,0.2c-0.7-0.1-1.4,0-2.1-0.2c-1.7-0.4,19.8,5.5,19.1,3.9c-0.3-0.6-0.6-0.7-1.2-0.6
				c-1.2,0.3-2.4,0.6-3.7,0.8c-0.1,0-0.3,0-0.4,0.1c-1.2,0.2-2.3,0.4-3.5,0.7c-0.7,0.2-1.4,0.1-2.2-0.2c-1.6-0.6-3.2-1.2-4.8-1.8
				c-0.2-0.1-0.3-0.1-0.5-0.2c-0.4-0.2-0.9-0.4-1.4-0.5c-0.2-0.2-0.4-0.3-0.7-0.4c-2.2-0.8-4.4-1.7-6.6-2.5
				c-0.6-0.2-1.2-0.4-1.7-0.8C268.6,99.3,268.5,99.1,268.3,99z M295,81.5c-0.1,0.5-0.1,1.1-0.2,1.6s0.2,0.5,0.6,0.5
				c1.4-0.1,2.1-1.1,2.8-2.1c0.2-0.1,0.3-0.2,0.3-0.4c0.4-0.4,0.8-0.8,1.2-1.2c0.2,0.1,0.3,0,0.4-0.1c0.2,0,0.4-0.1,0.5-0.1
				c0.4,0,0.9,0,1.3-0.3c0.5,0,0.9-0.1,0.9-0.7c0-2.8,0.1-5.5-0.1-8.3c0.1-0.5,0.3-0.9-0.5-0.9c-2.3,0.2-4.7,0.4-7,0.5
				c-0.2,0-0.5,0-0.6,0.3c-0.4,1.4-0.6,2.8-0.9,4.2c-0.1,0.1-0.2,0.2-0.1,0.4c-0.1,0.7-0.3,1.3-0.4,2c0.3,0.7,0.8,0.1,1.2,0.3
				c0.6,0.3,0.7,0.8,0.6,1.4c-0.1,0.7-0.1,1.4-0.1,2.1C294.9,81,294.9,81.3,295,81.5z"/>
			<path class="st0" d="M323,72.5c0.1,0,0.3-0.1,0.4-0.1c0.1,0,0.2,0.1,0.3,0.1c0.3,0.3,0.6,0.5,1,0.3s0.5-0.6,0.4-1
				c0-0.5,0-0.9-0.1-1.4c0-0.1,0-0.3,0-0.4c0-1.4,0.1-2.8,0-4.2c0-0.7,0.2-0.8,0.8-0.6c1.4,0.5,2.9,0.9,4.3,1.3
				c1.7,0.5,1.7,0.6,1.7,2.4c0,0.4,0,0.7,0,1.1c0,0.1,0,0.2,0,0.4c0,3.6,0,7.1,0,10.7c0,0.1,0,0.2,0,0.4c0,0.9,0,1.8,0,2.7
				c0,1.8,0.2,1.6-1.4,1.9c-0.1-0.1-0.3-0.1-0.4,0.1c-0.3,0-0.5,0-0.8,0.1c-0.1-0.1-0.3-0.1-0.4,0.1c-0.3,0-0.6,0-0.9,0.1
				c-0.1-0.1-0.3-0.1-0.3,0.1c-0.3,0-0.5,0-0.8,0.1c-0.1-0.1-0.3-0.1-0.4,0.1c-0.7,0-1.4,0.2-2,0.3c-0.1-0.1-0.3-0.1-0.4,0.1
				c-0.3,0-0.5-0.1-0.8,0.1c-2.5,0.2-5,0.7-7.5,1.1c-1.6,0.2-3.1,0.4-4.6,0.8c-0.2,0-0.5,0.1-0.7,0.1c-0.2-0.1-0.4-0.1-0.5,0.1
				c-1.1-0.1-1.3-0.3-1.3-1.4c0-2.1,0-4.2-0.1-6.3c0-0.1,0-0.3,0-0.4c0.1-3.5,0.1-7.1,0-10.6c0-0.1,0-0.3,0-0.4
				c0-0.2,0.1-0.5,0.1-0.7c0-2.2,0-4.5,0-6.7c0-1.4,0.9-2.1,2.3-1.8c0.3,0.1,0.5,0.1,0.8,0.1c0.2,0,0.4,0.1,0.5,0.1
				c2.3,0.9,4.7,1.5,7.1,2.2c0.6,0.2,0.9,0.5,0.8,1.2c0,1.9,0,3.7,0,5.6c0,0.1,0,0.2,0,0.4c0,0.3,0,0.7,0,1c0,0.5,0.3,1,0.6,0.9
				C321.7,72.2,322.3,72.6,323,72.5z"/>
			<path class="st1" d="M323.8,99.9c-0.3-0.2-0.5-0.3-0.8-0.5c-0.5-0.8-0.9-1.6-0.9-2.6c0-0.6-0.3-0.5-0.7-0.4
				c-3,0.9-5.9,1.9-8.9,2.8c-0.2,0-0.3,0-0.4,0.2c-0.2,0-0.4,0.1-0.5,0.1c-2,0.5-2.8-0.1-2.8-2.1c0-1.6,0-3.2,0-4.8
				c0-0.2,0-0.4,0-0.6c0.1-0.4,0.3-0.8,0.6-1c0.1,0,0.2-0.1,0.4-0.1c0.1,0,0.2,0,0.4,0c0.3,0.1,0.5,0,0.7-0.1c0.1,0,0.2,0,0.4,0
				c1.2-0.2,2.4-0.3,3.5-0.5c2.9-0.5,5.9-0.8,8.8-1.5c0.2,0.1,0.4,0,0.6-0.1c0.3,0.1,0.5,0,0.7-0.1c0.1,0,0.3,0,0.4-0.1
				c0.3,0.1,0.5,0,0.7-0.1c0.1,0,0.2,0,0.4-0.1c0.3,0.1,0.5,0,0.7-0.1c0.2,0,0.4,0,0.6-0.1c0.3,0.1,0.5,0,0.7-0.1
				c0.1,0,0.3,0,0.4-0.1c0.3,0.1,0.5,0,0.7-0.1c0.1,0,0.2,0,0.4-0.1c0.3,0.1,0.5,0,0.7-0.1c0.2,0,0.4,0,0.6-0.1c0.2,0,0.5,0,0.7,0.1
				c0.2,0.3,0.1,0.6,0.1,1c0,1.2,0,2.3,0,3.5c0,0.2,0,0.4,0,0.5c-0.1,0.2-0.2,0.4-0.3,0.6c-0.2,0.1-0.3,0.2-0.5,0.3
				c-0.2,0.1-0.4,0.1-0.6,0.2c-0.3,0-0.7,0.1-0.9,0.3c-0.3,0-0.4-0.1-0.5-0.4c0.1-0.2,0.1-0.4-0.1-0.6c0-0.1,0-0.2,0-0.4
				c-0.1-0.6-0.3-1.2-0.6-1.8c-0.7-1.1-1.7-1.1-2.6-0.2c-0.6,0.7-0.9,1.5-1.1,2.4c0,0.2-0.1,0.4-0.1,0.5c-0.2,0.4-0.2,0.9-0.1,1.3
				c0,0.1,0,0.2,0,0.3c-0.1,0.4-0.1,0.9,0.1,1.3c0,0.2,0,0.4,0.1,0.5c-0.1,0.2,0,0.4,0.1,0.6c0.1,0.2,0.1,0.5,0.2,0.7
				c0,0.3,0.1,0.5,0.3,0.6c0.2,0.4,0.5,0.7,0.9,0.9c0,0.1,0,0.2,0,0.3C325.5,100.2,324.6,100.2,323.8,99.9z"/>
			<path class="st1" d="M303.6,103.1c0.7-2.2,0.7-4.2-0.6-6.3c0.9-0.3,1.4,0.2,1.7,0.9c0.8,1.4,0.7,2.9,0.5,4.5
				c0,0.3-0.1,0.6-0.2,0.9c0,0.1-0.1,0.2-0.1,0.3c-0.4,0.5-0.6,1.2-1.3,1.5c-0.3,0.2-0.6,0.3-1,0.1c0.2-0.6,0.8-1,0.9-1.6
				C303.5,103.3,303.5,103.2,303.6,103.1z"/>
			<path class="st1" d="M326.7,92.5c0.5-0.8,0.9-0.2,1.3,0.1c0.6,1.3,0.6,2.6,0.1,3.9c-0.1,0.4-0.3,0.8-0.7,1.1
				c-0.2,0.2-0.5,0.3-0.8,0.1c-0.3-0.3,0-0.4,0.1-0.6C327.7,95.5,327.7,93.7,326.7,92.5z"/>
		</g>
	</g>
</g>
<g>
	<path class="st2" d="M207.3,289.6c1.1-2.5,3.2-5.7,4.5-7.1l2.7-0.2c-1,1.8-2.3,4.8-2.9,6.9L207.3,289.6z"/>
</g>
</svg>
