<?xml version="1.0" encoding="utf-8"?>
<!-- Generator: Adobe Illustrator 23.0.5, SVG Export Plug-In . SVG Version: 6.00 Build 0)  -->
<svg version="1.1" id="Layer_1" xmlns="http://www.w3.org/2000/svg" xmlns:xlink="http://www.w3.org/1999/xlink" x="0px" y="0px"
	 viewBox="0 0 150 50" style="enable-background:new 0 0 150 50;" xml:space="preserve">
<style type="text/css">
	.st0{fill:#FCB90F;}
	.st1{fill:#625D74;}
	.st2{fill:#615B75;}
	.st3{fill:#554F5D;}
	.st4{fill:#615D6B;}
	.st5{fill:#A6AFB2;}
	.st6{fill:#6B6B6B;}
	.st7{fill:#424242;}
	.st8{fill:#F2BC86;}
	.st9{fill:#FCD275;}
	.st10{opacity:0.3;fill:#FFFFFF;enable-background:new    ;}
	.st11{fill:#E2A771;}
	.st12{fill:none;}
</style>
<g>
	<g>
		<path class="st0" d="M7.5,2.8c0.2,0,0.3,0.1,0.4,0.2c0.1,0.1,0.2,0.3,0.2,0.5v6.9c0,0.2-0.1,0.3-0.2,0.4C7.8,11,7.6,11,7.5,11H6.7
			c-0.2,0-0.3-0.1-0.4-0.2C6.1,10.7,6,10.6,6,10.4V6.6c0,0,0,0,0,0s0,0,0,0L5.2,8.8C5.1,8.9,5,9.1,4.8,9.2C4.7,9.3,4.5,9.4,4.3,9.4
			H3.8c-0.2,0-0.4-0.1-0.5-0.2C3.1,9.1,3,8.9,2.9,8.8L2.1,6.6c0,0,0,0,0,0s0,0,0,0v3.9c0,0.2-0.1,0.3-0.2,0.4S1.6,11,1.4,11H0.6
			c-0.2,0-0.3-0.1-0.4-0.2C0.1,10.7,0,10.6,0,10.4V3.5C0,3.3,0.1,3.1,0.2,3c0.1-0.1,0.3-0.2,0.4-0.2h1c0.2,0,0.4,0,0.5,0.2
			c0.2,0.1,0.3,0.3,0.3,0.4L4,7.7c0,0,0,0,0,0s0,0,0,0l1.5-4.2C5.6,3.2,5.7,3.1,5.9,3c0.2-0.1,0.3-0.2,0.5-0.2H7.5z"/>
		<path class="st0" d="M13,5.1c1,0,1.7,0.2,2.2,0.5c0.4,0.4,0.7,0.9,0.7,1.7v3.1c0,0.2-0.1,0.3-0.2,0.4C15.5,11,15.4,11,15.2,11
			h-0.7c-0.2,0-0.3-0.1-0.5-0.2c-0.1-0.1-0.2-0.3-0.2-0.5v-0.1c0,0,0,0,0,0s0,0,0,0c-0.5,0.6-1.1,0.9-1.8,0.9c-0.5,0-1-0.2-1.3-0.5
			s-0.5-0.8-0.5-1.3c0-1.4,1-2,3-2h0.4c0.1,0,0.1,0,0.1-0.1v0c0-0.4-0.3-0.7-0.8-0.7c-0.4,0-1,0.1-1.8,0.2c-0.2,0-0.3,0-0.4-0.1
			s-0.2-0.2-0.2-0.4V6.1c0-0.2,0.1-0.4,0.2-0.5c0.1-0.2,0.3-0.2,0.4-0.3C11.9,5.1,12.5,5.1,13,5.1z M13.7,8.7L13.7,8.7
			c0-0.1,0-0.2-0.1-0.2h-0.4c-0.8,0-1.1,0.2-1.1,0.7c0,0.3,0.2,0.5,0.6,0.5c0.3,0,0.5-0.1,0.7-0.3C13.6,9.2,13.7,9,13.7,8.7z"/>
		<path class="st0" d="M22.2,5.4c0.2,0,0.3,0.1,0.5,0.2c0.1,0.1,0.2,0.3,0.2,0.4v0.2c0,0.2-0.1,0.3-0.2,0.4
			c-0.1,0.1-0.3,0.2-0.5,0.2h-1c-0.1,0-0.1,0-0.1,0.1v1.6c0,0.4,0,0.7,0.1,0.9c0.1,0.1,0.2,0.2,0.5,0.2c0.1,0,0.2,0,0.4,0
			c0.2,0,0.3,0,0.4,0.1c0.1,0.1,0.2,0.2,0.2,0.4v0.3c0,0.2-0.1,0.4-0.2,0.5c-0.1,0.1-0.3,0.2-0.5,0.3c-0.3,0-0.6,0.1-1,0.1
			c-0.8,0-1.4-0.2-1.7-0.5c-0.3-0.4-0.5-1-0.5-1.9V7c0-0.1,0-0.1-0.1-0.1h-0.4c-0.2,0-0.3-0.1-0.5-0.2c-0.1-0.1-0.2-0.3-0.2-0.4V6.1
			c0-0.2,0.1-0.3,0.2-0.4c0.1-0.1,0.3-0.2,0.5-0.2h0.4c0.1,0,0.1,0,0.1-0.1V3.9c0-0.2,0.1-0.3,0.2-0.5c0.1-0.1,0.3-0.2,0.5-0.2h0.9
			c0.2,0,0.3,0.1,0.5,0.2c0.1,0.1,0.2,0.3,0.2,0.5v1.4c0,0.1,0,0.1,0.1,0.1L22.2,5.4L22.2,5.4z"/>
		<path class="st0" d="M25.5,5.9c0.5-0.5,1.3-0.8,2.2-0.8s1.7,0.3,2.2,0.8s0.8,1.3,0.8,2.2s-0.3,1.7-0.8,2.2
			c-0.5,0.5-1.3,0.8-2.2,0.8s-1.7-0.3-2.2-0.8s-0.8-1.3-0.8-2.2S25,6.4,25.5,5.9z M27.1,9.3c0.1,0.2,0.4,0.4,0.7,0.4
			s0.5-0.1,0.7-0.4c0.1-0.2,0.2-0.6,0.2-1.2s-0.1-1-0.2-1.2c-0.1-0.2-0.4-0.4-0.7-0.4s-0.5,0.1-0.7,0.4c-0.1,0.2-0.2,0.6-0.2,1.2
			S26.9,9.1,27.1,9.3z"/>
		<path class="st0" d="M34.5,2.6c0.2,0,0.3,0.1,0.5,0.2s0.2,0.3,0.2,0.5v7.2c0,0.2-0.1,0.3-0.2,0.4C34.8,11,34.7,11,34.5,11h-1
			c-0.2,0-0.3-0.1-0.5-0.2c-0.1-0.1-0.2-0.3-0.2-0.4V3.2c0-0.2,0.1-0.3,0.2-0.5c0.1-0.1,0.3-0.2,0.5-0.2H34.5z"/>
		<path class="st0" d="M40.2,7.3c0.9,0.1,1.5,0.3,1.8,0.7c0.4,0.3,0.5,0.8,0.5,1.4c0,0.6-0.2,1.1-0.6,1.4c-0.4,0.3-1.1,0.5-1.9,0.5
			c-0.6,0-1.2-0.1-1.9-0.2c-0.2,0-0.3-0.1-0.5-0.3s-0.2-0.3-0.2-0.5V9.9c0-0.2,0.1-0.3,0.2-0.4s0.3-0.1,0.4-0.1
			c0.6,0.1,1.1,0.2,1.6,0.2c0.4,0,0.6-0.1,0.6-0.4c0-0.1,0-0.2-0.1-0.3s-0.2-0.1-0.4-0.1c-0.8-0.1-1.4-0.4-1.8-0.7
			c-0.4-0.3-0.6-0.8-0.6-1.3c0-0.6,0.2-1,0.7-1.3c0.4-0.3,1.1-0.5,2-0.5c0.6,0,1.1,0,1.6,0.1c0.2,0,0.3,0.1,0.5,0.3
			c0.1,0.1,0.2,0.3,0.2,0.5v0.2c0,0.2-0.1,0.3-0.2,0.4s-0.3,0.1-0.4,0.1c-0.5-0.1-0.9-0.1-1.4-0.1c-0.3,0-0.4,0-0.5,0.1
			c-0.1,0.1-0.2,0.1-0.2,0.3C39.7,7.1,39.9,7.2,40.2,7.3z"/>
	</g>
	<g>
		<path class="st0" d="M5,23c0.2,0,0.3,0.1,0.4,0.2c0.1,0.1,0.2,0.3,0.2,0.5v0.6c0,0.2-0.1,0.3-0.2,0.5c-0.1,0.1-0.3,0.2-0.4,0.2
			H0.6c-0.2,0-0.3-0.1-0.4-0.2C0.1,24.5,0,24.4,0,24.2v-6.9c0-0.2,0.1-0.3,0.2-0.5c0.1-0.1,0.3-0.2,0.4-0.2h1c0.2,0,0.3,0.1,0.4,0.2
			c0.1,0.1,0.2,0.3,0.2,0.5v5.6c0,0.1,0,0.1,0.1,0.1C2.4,23,5,23,5,23z"/>
		<path class="st0" d="M8.1,19.7c0.5-0.5,1.3-0.8,2.2-0.8s1.7,0.3,2.2,0.8c0.5,0.5,0.8,1.3,0.8,2.2c0,1-0.3,1.7-0.8,2.2
			c-0.5,0.5-1.3,0.8-2.2,0.8s-1.7-0.3-2.2-0.8c-0.5-0.5-0.8-1.3-0.8-2.2C7.3,21,7.6,20.2,8.1,19.7z M9.7,23.1
			c0.1,0.2,0.4,0.4,0.7,0.4s0.5-0.1,0.7-0.4c0.1-0.2,0.2-0.6,0.2-1.2s-0.1-1-0.2-1.2c-0.1-0.2-0.4-0.4-0.7-0.4s-0.6,0.1-0.7,0.4
			c-0.1,0.2-0.2,0.6-0.2,1.2C9.5,22.5,9.6,22.9,9.7,23.1z"/>
		<path class="st0" d="M20.3,19c0.2,0,0.3,0.1,0.5,0.2c0.1,0.1,0.2,0.3,0.2,0.5v4.7c0,1-0.3,1.8-0.9,2.3c-0.6,0.5-1.5,0.8-2.6,0.8
			c-0.4,0-0.9,0-1.3-0.1c-0.2,0-0.3-0.1-0.4-0.3c-0.1-0.1-0.2-0.3-0.2-0.5v-0.5c0-0.2,0.1-0.3,0.2-0.4c0.1-0.1,0.3-0.1,0.4-0.1
			c0.3,0.1,0.7,0.1,1.2,0.1c0.5,0,0.9-0.1,1.2-0.4c0.2-0.2,0.4-0.6,0.4-1.2V24c0,0,0,0,0,0c0,0,0,0,0,0c-0.4,0.5-0.9,0.7-1.6,0.7
			c-0.6,0-1.2-0.3-1.6-0.8c-0.4-0.5-0.6-1.2-0.6-2.1c0-0.9,0.2-1.6,0.6-2.2c0.4-0.5,1-0.8,1.6-0.8c0.6,0,1.2,0.3,1.7,0.9
			c0,0,0,0,0,0s0,0,0,0v-0.1c0-0.2,0.1-0.3,0.2-0.5c0.1-0.1,0.3-0.2,0.5-0.2L20.3,19L20.3,19z M18.9,22.3v-1c0-0.3-0.1-0.5-0.3-0.6
			s-0.4-0.3-0.6-0.3c-0.6,0-0.9,0.5-0.9,1.4c0,0.4,0.1,0.8,0.2,1s0.4,0.3,0.7,0.3c0.3,0,0.5-0.1,0.6-0.2
			C18.8,22.7,18.9,22.5,18.9,22.3z"/>
		<path class="st0" d="M25,16.4c0.2,0,0.3,0.1,0.5,0.2c0.1,0.1,0.2,0.3,0.2,0.5v0.3c0,0.2-0.1,0.3-0.2,0.5c-0.1,0.1-0.3,0.2-0.5,0.2
			h-1c-0.2,0-0.3-0.1-0.5-0.2c-0.1-0.1-0.2-0.3-0.2-0.5V17c0-0.2,0.1-0.3,0.2-0.5c0.1-0.1,0.3-0.2,0.5-0.2H25z M25,19
			c0.2,0,0.3,0.1,0.5,0.2c0.1,0.1,0.2,0.3,0.2,0.5v4.6c0,0.2-0.1,0.3-0.2,0.5c-0.1,0.1-0.3,0.2-0.5,0.2h-1c-0.2,0-0.3-0.1-0.5-0.2
			c-0.1-0.1-0.2-0.3-0.2-0.5v-4.6c0-0.2,0.1-0.3,0.2-0.5c0.1-0.1,0.3-0.2,0.5-0.2H25z"/>
		<path class="st0" d="M30.7,21c0.9,0.1,1.5,0.3,1.8,0.6s0.5,0.8,0.5,1.4c0,0.6-0.2,1-0.6,1.4c-0.4,0.3-1.1,0.5-1.9,0.5
			c-0.6,0-1.2-0.1-1.9-0.2c-0.2,0-0.3-0.1-0.5-0.3c-0.1-0.1-0.2-0.3-0.2-0.5v-0.3c0-0.2,0.1-0.3,0.2-0.4c0.1-0.1,0.3-0.1,0.4-0.1
			c0.6,0.1,1.1,0.2,1.6,0.2c0.4,0,0.6-0.1,0.6-0.4c0-0.1,0-0.2-0.1-0.3s-0.2-0.1-0.4-0.1c-0.8-0.1-1.4-0.4-1.8-0.7
			c-0.4-0.3-0.6-0.8-0.6-1.3c0-0.6,0.2-1,0.7-1.3s1.1-0.5,2-0.5c0.6,0,1.1,0,1.6,0.1c0.2,0,0.3,0.1,0.5,0.3s0.2,0.3,0.2,0.5V20
			c0,0.2-0.1,0.3-0.2,0.4c-0.1,0.1-0.3,0.1-0.4,0.1c-0.5-0.1-0.9-0.1-1.4-0.1c-0.3,0-0.4,0-0.5,0.1s-0.1,0.1-0.1,0.3
			C30.2,20.9,30.4,21,30.7,21z"/>
		<path class="st0" d="M39.3,19.2c0.2,0,0.3,0.1,0.5,0.2c0.1,0.1,0.2,0.3,0.2,0.5V20c0,0.2-0.1,0.3-0.2,0.5
			c-0.1,0.1-0.3,0.2-0.5,0.2h-1c-0.1,0-0.1,0-0.1,0.1v1.6c0,0.5,0,0.7,0.1,0.9c0.1,0.1,0.2,0.2,0.5,0.2c0.1,0,0.2,0,0.4,0
			c0.2,0,0.3,0,0.4,0.1s0.2,0.2,0.2,0.4v0.3c0,0.2-0.1,0.4-0.2,0.5c-0.1,0.1-0.3,0.2-0.5,0.3c-0.3,0-0.6,0.1-1,0.1
			c-0.8,0-1.4-0.2-1.7-0.5s-0.5-1-0.5-1.9v-1.8c0-0.1,0-0.1-0.1-0.1h-0.4c-0.2,0-0.3-0.1-0.5-0.2c-0.1-0.1-0.2-0.3-0.2-0.5v-0.2
			c0-0.2,0.1-0.3,0.2-0.5c0.1-0.1,0.3-0.2,0.5-0.2H36c0.1,0,0.1,0,0.1-0.1v-1.4c0-0.2,0.1-0.3,0.2-0.5c0.1-0.1,0.3-0.2,0.5-0.2h0.9
			c0.2,0,0.3,0.1,0.5,0.2c0.1,0.1,0.2,0.3,0.2,0.5v1.4c0,0.1,0,0.1,0.1,0.1H39.3z"/>
		<path class="st0" d="M44.1,16.4c0.2,0,0.3,0.1,0.5,0.2c0.1,0.1,0.2,0.3,0.2,0.5v0.3c0,0.2-0.1,0.3-0.2,0.5
			c-0.1,0.1-0.3,0.2-0.5,0.2h-1c-0.2,0-0.3-0.1-0.5-0.2c-0.1-0.1-0.2-0.3-0.2-0.5V17c0-0.2,0.1-0.3,0.2-0.5c0.1-0.1,0.3-0.2,0.5-0.2
			H44.1z M44.1,19c0.2,0,0.3,0.1,0.5,0.2c0.1,0.1,0.2,0.3,0.2,0.5v4.6c0,0.2-0.1,0.3-0.2,0.5c-0.1,0.1-0.3,0.2-0.5,0.2h-1
			c-0.2,0-0.3-0.1-0.5-0.2c-0.1-0.1-0.2-0.3-0.2-0.5v-4.6c0-0.2,0.1-0.3,0.2-0.5c0.1-0.1,0.3-0.2,0.5-0.2H44.1z"/>
		<path class="st0" d="M51.3,23.3c0.2,0,0.3,0,0.4,0.1c0.1,0.1,0.2,0.2,0.2,0.4v0.3c0,0.2-0.1,0.4-0.2,0.5c-0.1,0.1-0.3,0.2-0.5,0.3
			c-0.5,0.1-1,0.1-1.3,0.1c-1,0-1.8-0.3-2.3-0.8s-0.8-1.3-0.8-2.3c0-1,0.3-1.7,0.8-2.3c0.5-0.5,1.3-0.8,2.2-0.8c0.4,0,0.8,0,1.3,0.1
			c0.2,0,0.3,0.1,0.5,0.3s0.2,0.3,0.2,0.5V20c0,0.2-0.1,0.3-0.2,0.4c-0.1,0.1-0.3,0.1-0.4,0.1c-0.3,0-0.6-0.1-1-0.1
			c-0.4,0-0.7,0.1-0.8,0.4s-0.3,0.6-0.3,1.1c0,0.5,0.1,0.9,0.3,1.1c0.2,0.2,0.5,0.3,0.9,0.3C50.6,23.4,51,23.3,51.3,23.3z"/>
		<path class="st0" d="M56.6,21c0.9,0.1,1.5,0.3,1.8,0.6s0.5,0.8,0.5,1.4c0,0.6-0.2,1-0.6,1.4c-0.4,0.3-1.1,0.5-1.9,0.5
			c-0.6,0-1.2-0.1-1.9-0.2c-0.2,0-0.3-0.1-0.5-0.3C54.1,24.3,54,24.2,54,24v-0.3c0-0.2,0.1-0.3,0.2-0.4c0.1-0.1,0.3-0.1,0.4-0.1
			c0.6,0.1,1.1,0.2,1.6,0.2c0.4,0,0.6-0.1,0.6-0.4c0-0.1,0-0.2-0.1-0.3s-0.2-0.1-0.4-0.1c-0.8-0.1-1.4-0.4-1.8-0.7
			c-0.4-0.3-0.6-0.8-0.6-1.3c0-0.6,0.2-1,0.7-1.3s1.1-0.5,2-0.5c0.6,0,1.1,0,1.6,0.1c0.2,0,0.3,0.1,0.5,0.3s0.2,0.3,0.2,0.5V20
			c0,0.2-0.1,0.3-0.2,0.4c-0.1,0.1-0.3,0.1-0.4,0.1c-0.5-0.1-0.9-0.1-1.4-0.1c-0.3,0-0.4,0-0.5,0.1c-0.1,0-0.2,0.1-0.2,0.3
			C56.1,20.9,56.3,21,56.6,21z"/>
	</g>
	<g>
		<path class="st0" d="M3,33.4c1.1,0.3,1.8,0.7,2.2,1.1c0.4,0.4,0.6,1,0.6,1.7c0,1.7-1.1,2.5-3.2,2.5c-0.7,0-1.3-0.1-1.9-0.3
			c-0.2-0.1-0.3-0.2-0.4-0.4c-0.1-0.2-0.2-0.4-0.2-0.6v-0.6c0-0.1,0.1-0.3,0.2-0.3s0.2-0.1,0.4,0C1.4,36.8,2,37,2.5,37
			c0.7,0,1-0.2,1-0.7c0-0.2,0-0.4-0.2-0.5c-0.1-0.1-0.3-0.2-0.6-0.3c-1-0.3-1.7-0.7-2.2-1.2c-0.4-0.4-0.6-1-0.6-1.7
			c0-0.7,0.3-1.3,0.8-1.7c0.5-0.4,1.3-0.6,2.3-0.6c0.7,0,1.4,0.1,1.9,0.2c0.2,0,0.3,0.2,0.4,0.3s0.2,0.3,0.2,0.5v0.5
			c0,0.1-0.1,0.3-0.2,0.4c-0.1,0.1-0.3,0.1-0.4,0C4.4,32.1,3.8,32,3.2,32c-0.6,0-0.9,0.2-0.9,0.6C2.3,33,2.5,33.3,3,33.4z"/>
		<path class="st0" d="M10.6,32.6c1.9,0,2.9,1,2.9,3c0,0.2-0.1,0.3-0.2,0.5c-0.1,0.1-0.3,0.2-0.5,0.2h-3c-0.1,0-0.1,0-0.1,0.1
			c0.1,0.3,0.2,0.5,0.4,0.7c0.2,0.1,0.6,0.2,1.1,0.2c0.3,0,0.7,0,1.1-0.1c0.2,0,0.3,0,0.4,0.1c0.1,0.1,0.2,0.2,0.2,0.4v0.2
			c0,0.2-0.1,0.4-0.2,0.5c-0.1,0.2-0.3,0.3-0.4,0.3c-0.5,0.1-0.9,0.1-1.5,0.1c-1.1,0-1.9-0.3-2.5-0.8c-0.6-0.5-0.9-1.3-0.9-2.3
			s0.3-1.7,0.8-2.3C8.8,32.9,9.6,32.6,10.6,32.6z M11.4,35.1c0.1,0,0.1,0,0.1-0.1c0-0.3-0.1-0.6-0.2-0.7S10.9,34,10.6,34
			c-0.3,0-0.5,0.1-0.7,0.2S9.7,34.7,9.7,35c0,0.1,0,0.1,0.1,0.1H11.4z"/>
		<path class="st0" d="M19.5,32.8c0.2,0,0.3,0,0.5,0.2c0.1,0.1,0.2,0.3,0.2,0.5v0.3c0,0.2-0.1,0.3-0.2,0.5c-0.1,0.1-0.3,0.2-0.5,0.2
			c-0.6,0.1-1,0.3-1.4,0.7s-0.5,0.8-0.5,1.3V38c0,0.2-0.1,0.3-0.2,0.5c-0.1,0.1-0.3,0.2-0.5,0.2H16c-0.2,0-0.3-0.1-0.4-0.2
			c-0.1-0.1-0.2-0.3-0.2-0.5v-4.6c0-0.2,0.1-0.3,0.2-0.5c0.1-0.1,0.3-0.2,0.4-0.2h0.9c0.2,0,0.3,0.1,0.5,0.2
			c0.1,0.1,0.2,0.3,0.2,0.5v0.5c0,0,0,0,0,0s0,0,0,0C18,33.2,18.6,32.9,19.5,32.8z"/>
		<path class="st0" d="M27.3,32.8c0.2,0,0.3,0.1,0.4,0.2c0.1,0.1,0.1,0.3,0.1,0.4L26.3,38c-0.1,0.2-0.2,0.3-0.3,0.4
			c-0.1,0.1-0.3,0.2-0.5,0.2H24c-0.2,0-0.4-0.1-0.5-0.2c-0.1-0.1-0.3-0.3-0.3-0.4l-1.4-4.7c0-0.2,0-0.3,0.1-0.4
			c0.1-0.1,0.2-0.2,0.4-0.2h1c0.2,0,0.3,0.1,0.5,0.2s0.2,0.3,0.3,0.5l0.8,4c0,0,0,0,0,0s0,0,0,0l0.8-4c0-0.2,0.1-0.3,0.3-0.5
			c0.1-0.1,0.3-0.2,0.5-0.2L27.3,32.8L27.3,32.8z"/>
		<path class="st0" d="M31.3,30.1c0.2,0,0.3,0.1,0.5,0.2s0.2,0.3,0.2,0.5v0.3c0,0.2-0.1,0.3-0.2,0.5c-0.1,0.1-0.3,0.2-0.5,0.2h-1
			c-0.2,0-0.3-0.1-0.5-0.2c-0.1-0.1-0.2-0.3-0.2-0.5v-0.3c0-0.2,0.1-0.3,0.2-0.5c0.1-0.1,0.3-0.2,0.5-0.2L31.3,30.1L31.3,30.1z
			 M31.3,32.8c0.2,0,0.3,0.1,0.5,0.2c0.1,0.1,0.2,0.3,0.2,0.5V38c0,0.2-0.1,0.3-0.2,0.5c-0.1,0.1-0.3,0.2-0.5,0.2h-1
			c-0.2,0-0.3-0.1-0.5-0.2c-0.1-0.1-0.2-0.3-0.2-0.5v-4.6c0-0.2,0.1-0.3,0.2-0.5c0.1-0.1,0.3-0.2,0.5-0.2H31.3z"/>
		<path class="st0" d="M38.5,37.1c0.2,0,0.3,0,0.4,0.1c0.1,0.1,0.2,0.2,0.2,0.4v0.3c0,0.2-0.1,0.3-0.2,0.5c-0.1,0.1-0.3,0.2-0.5,0.3
			c-0.5,0.1-1,0.1-1.3,0.1c-1,0-1.8-0.3-2.3-0.8c-0.5-0.5-0.8-1.3-0.8-2.3c0-1,0.3-1.7,0.8-2.3c0.5-0.5,1.3-0.8,2.2-0.8
			c0.4,0,0.8,0,1.3,0.1c0.2,0,0.3,0.1,0.5,0.3s0.2,0.3,0.2,0.5v0.3c0,0.2-0.1,0.3-0.2,0.4c-0.1,0.1-0.3,0.1-0.4,0.1
			c-0.3,0-0.6-0.1-1-0.1c-0.4,0-0.7,0.1-0.8,0.3s-0.3,0.6-0.3,1.1c0,0.5,0.1,0.9,0.3,1.1s0.5,0.3,0.9,0.3
			C37.9,37.1,38.2,37.1,38.5,37.1z"/>
		<path class="st0" d="M43.9,32.6c1.9,0,2.9,1,2.9,3c0,0.2-0.1,0.3-0.2,0.5c-0.1,0.1-0.3,0.2-0.5,0.2h-3c-0.1,0-0.1,0-0.1,0.1
			c0.1,0.3,0.2,0.5,0.5,0.7c0.2,0.1,0.6,0.2,1.1,0.2c0.3,0,0.7,0,1.1-0.1c0.2,0,0.3,0,0.4,0.1c0.1,0.1,0.2,0.2,0.2,0.4v0.2
			c0,0.2-0.1,0.4-0.2,0.5c-0.1,0.2-0.3,0.3-0.5,0.3c-0.5,0.1-1,0.1-1.5,0.1c-1.1,0-1.9-0.3-2.5-0.8c-0.6-0.5-0.9-1.3-0.9-2.3
			s0.3-1.7,0.8-2.3C42.2,32.9,43,32.6,43.9,32.6z M44.7,35.1C44.8,35.1,44.8,35.1,44.7,35.1c0.1-0.4,0-0.7-0.1-0.8S44.3,34,44,34
			c-0.3,0-0.5,0.1-0.7,0.2S43.1,34.7,43,35c0,0.1,0,0.1,0.1,0.1H44.7z"/>
		<path class="st0" d="M51.3,34.8c0.9,0.1,1.5,0.3,1.8,0.7s0.5,0.8,0.5,1.4c0,0.6-0.2,1-0.6,1.4c-0.4,0.3-1.1,0.5-1.9,0.5
			c-0.6,0-1.2-0.1-1.9-0.2c-0.2,0-0.3-0.1-0.5-0.3c-0.1-0.2-0.2-0.3-0.2-0.5v-0.3c0-0.2,0.1-0.3,0.2-0.4C49,37,49.1,37,49.3,37
			c0.6,0.1,1.1,0.2,1.6,0.2c0.4,0,0.6-0.1,0.6-0.4c0-0.1,0-0.2-0.1-0.3s-0.2-0.1-0.4-0.1c-0.8-0.1-1.4-0.4-1.8-0.7
			c-0.4-0.3-0.6-0.8-0.6-1.3c0-0.6,0.2-1,0.7-1.3c0.4-0.3,1.1-0.5,2-0.5c0.6,0,1.1,0,1.6,0.1c0.2,0,0.3,0.1,0.5,0.3s0.2,0.3,0.2,0.5
			v0.2c0,0.2-0.1,0.3-0.2,0.4s-0.3,0.1-0.4,0.1c-0.5-0.1-0.9-0.1-1.4-0.1c-0.3,0-0.4,0-0.5,0.1c-0.1,0-0.2,0.1-0.2,0.3
			C50.8,34.7,50.9,34.8,51.3,34.8z"/>
	</g>
	<g>
		<g>
			<g>
				<path class="st1" d="M133.5,33.1H82.8c4.4,0,7.9,3.3,7.9,7.5c0,0.1,0,0.3,0,0.4h34.8c0-0.1,0-0.3,0-0.4
					C125.5,36.4,129.1,33.1,133.5,33.1z"/>
				<path class="st2" d="M71.9,40.9h2.9c0-0.1,0-0.3,0-0.4c0-4.1,3.6-7.5,7.9-7.5H70.9v6.8C70.9,40.4,71.4,40.9,71.9,40.9z"/>
			</g>
			<path class="st3" d="M82.8,33.1c-4.4,0-7.9,3.6-7.9,8s3.6,8,7.9,8s7.9-3.6,7.9-8S87.2,33.1,82.8,33.1z M82.8,46.2
				c-2.9,0-5.2-2.3-5.2-5.2s2.3-5.2,5.2-5.2c2.9,0,5.2,2.3,5.2,5.2C88.1,43.9,85.7,46.2,82.8,46.2z"/>
			<path class="st0" d="M140.8,8.6h-13.6c-0.6,0-1.1,0.5-1.1,1.1v22.3c0,0.6,0.5,1,1.1,1h19v-1.6c0-0.6,0.5-1,1.1-1h1.9v-2
				c0-0.5-0.1-0.9-0.2-1.3l-6.7-17.5C142,8.9,141.4,8.6,140.8,8.6z"/>
			<path class="st1" d="M146.2,33.5v-0.4h-11.7v0.1c3.6,0.6,6.4,3.5,6.7,7.2h5.1v-4h2.9v-1.9h-1.9C146.7,34.5,146.2,34.1,146.2,33.5
				z"/>
			<path class="st0" d="M149.2,36.4L149.2,36.4c0.5,0,0.8,0.4,0.8,0.8v2.9c0,0.6-0.5,1-1.1,1h-1.7c-0.6,0-1.1-0.5-1.1-1v-3.8H149.2z
				"/>
			<path class="st3" d="M133.3,33.1c-4.4,0-7.9,3.6-7.9,8s3.6,8,7.9,8s7.9-3.6,7.9-8S137.6,33.1,133.3,33.1z M133.3,46.2
				c-2.9,0-5.2-2.3-5.2-5.2s2.3-5.2,5.2-5.2s5.2,2.3,5.2,5.2C138.5,43.9,136.1,46.2,133.3,46.2z"/>
			<path class="st4" d="M128.6,20.1v-7.5c0-0.6,0.5-1.1,1.1-1.1h10.6c0.4,0,0.8,0.3,1,0.7l2.6,7c0.4,1-0.4,2-1.4,2h-12.8
				C129.1,21.1,128.6,20.7,128.6,20.1z"/>
			<g>
				<path class="st0" d="M65.7,3.1v30.8c0,1.2,1,2.1,2.1,2.1h8.9c1.5-1.8,3.8-2.9,6.3-2.9s4.8,1.1,6.3,2.9H122
					c1.2,0,2.1-0.9,2.1-2.1V3.1c0-1.2-1-2.1-2.1-2.1H67.8C66.6,1,65.7,2,65.7,3.1z"/>
			</g>
		</g>
	</g>
	<g>
		<path class="st0" d="M3.4,47.8c0.1,0,0.2,0,0.3,0.1s0.1,0.2,0.1,0.3v0.3c0,0.1,0,0.2-0.1,0.3s-0.2,0.1-0.3,0.1H0.9
			c-0.1,0-0.2,0-0.3-0.1s-0.1-0.2-0.1-0.3v-4c0-0.1,0-0.2,0.1-0.3s0.2-0.1,0.3-0.1h0.6c0.1,0,0.2,0,0.3,0.1c0.1,0.1,0.1,0.2,0.1,0.3
			v3.3c0,0,0,0.1,0.1,0.1H3.4z"/>
		<path class="st0" d="M6.4,45.4c1.1,0,1.7,0.6,1.7,1.8c0,0.1,0,0.2-0.1,0.3c-0.1,0.1-0.2,0.1-0.3,0.1H5.9c0,0-0.1,0-0.1,0.1
			c0,0.2,0.1,0.3,0.3,0.4c0.1,0.1,0.3,0.1,0.6,0.1c0.2,0,0.4,0,0.7-0.1c0.1,0,0.2,0,0.3,0.1s0.1,0.1,0.1,0.2v0.1
			c0,0.1,0,0.2-0.1,0.3c-0.1,0.1-0.2,0.1-0.3,0.2c-0.3,0-0.6,0.1-0.9,0.1c-0.6,0-1.1-0.2-1.4-0.5c-0.3-0.3-0.5-0.7-0.5-1.3
			c0-0.6,0.2-1,0.4-1.3C5.4,45.5,5.8,45.4,6.4,45.4z M6.8,46.8C6.9,46.8,6.9,46.8,6.8,46.8c0.1-0.3,0-0.4-0.1-0.5s-0.2-0.1-0.4-0.1
			s-0.3,0-0.4,0.1c-0.1,0.1-0.1,0.2-0.2,0.4c0,0,0,0,0.1,0C5.9,46.8,6.8,46.8,6.8,46.8z"/>
		<path class="st0" d="M11.5,45.6c0.1,0,0.2,0,0.3,0.1c0.1,0.1,0.1,0.2,0.1,0.3v0.1c0,0.1,0,0.2-0.1,0.3s-0.2,0.1-0.3,0.1h-0.6
			c0,0-0.1,0-0.1,0.1v0.9c0,0.3,0,0.4,0.1,0.5c0,0.1,0.1,0.1,0.3,0.1c0.1,0,0.1,0,0.2,0c0.1,0,0.2,0,0.3,0.1
			c0.1,0.1,0.1,0.1,0.1,0.2v0.2c0,0.1,0,0.2-0.1,0.3c-0.1,0.1-0.1,0.1-0.3,0.2c-0.1,0-0.3,0-0.6,0c-0.5,0-0.8-0.1-1-0.3
			s-0.3-0.6-0.3-1.1v-1c0,0,0-0.1-0.1-0.1H9.3c-0.1,0-0.2,0-0.3-0.1c-0.1-0.1-0.1-0.2-0.1-0.3V46c0-0.1,0-0.2,0.1-0.3
			s0.2-0.1,0.3-0.1h0.3c0,0,0.1,0,0.1-0.1v-0.8c0-0.1,0-0.2,0.1-0.3s0.2-0.1,0.3-0.1h0.5c0.1,0,0.2,0,0.3,0.1
			c0.1,0.1,0.1,0.2,0.1,0.3v0.8c0,0,0,0.1,0.1,0.1L11.5,45.6L11.5,45.6z"/>
		<path class="st0" d="M14.6,43.8c0.1,0,0.2,0,0.2,0.1s0.1,0.2,0,0.2l-0.5,1.4c0,0.1-0.1,0.2-0.2,0.3s-0.2,0.1-0.3,0.1h-0.3
			c-0.1,0-0.2,0-0.2-0.1c-0.1-0.1-0.1-0.2-0.1-0.3l0.3-1.4c0-0.1,0.1-0.2,0.1-0.3s0.2-0.1,0.3-0.1C13.9,43.8,14.6,43.8,14.6,43.8z"
			/>
		<path class="st0" d="M17.5,46.7c0.5,0.1,0.9,0.2,1.1,0.4c0.2,0.2,0.3,0.5,0.3,0.8c0,0.3-0.1,0.6-0.4,0.8s-0.6,0.3-1.1,0.3
			c-0.4,0-0.7,0-1.1-0.1c-0.1,0-0.2-0.1-0.3-0.2c-0.1-0.1-0.1-0.2-0.1-0.3v-0.2c0-0.1,0-0.2,0.1-0.2c0.1,0,0.2-0.1,0.2,0
			c0.3,0.1,0.6,0.1,0.9,0.1c0.2,0,0.4-0.1,0.4-0.2c0-0.1,0-0.1-0.1-0.1c0,0-0.1,0-0.2-0.1c-0.5-0.1-0.8-0.2-1.1-0.4
			c-0.2-0.2-0.3-0.5-0.3-0.8c0-0.3,0.1-0.6,0.4-0.8c0.3-0.2,0.6-0.3,1.2-0.3c0.3,0,0.7,0,1,0.1c0.1,0,0.2,0.1,0.3,0.2
			s0.1,0.2,0.1,0.3V46c0,0.1,0,0.2-0.1,0.2s-0.2,0.1-0.3,0.1c-0.3,0-0.5-0.1-0.8-0.1c-0.1,0-0.3,0-0.3,0c-0.1,0-0.1,0.1-0.1,0.2
			C17.2,46.6,17.3,46.7,17.5,46.7z"/>
		<path class="st0" d="M26.4,45.4c0.4,0,0.6,0.1,0.8,0.3c0.2,0.2,0.3,0.5,0.3,1v1.8c0,0.1,0,0.2-0.1,0.3s-0.2,0.1-0.3,0.1h-0.5
			c-0.1,0-0.2,0-0.3-0.1s-0.1-0.2-0.1-0.3v-1.8c0-0.2,0-0.3-0.1-0.3c0,0-0.1-0.1-0.2-0.1c-0.1,0-0.2,0-0.3,0.1s-0.1,0.1-0.1,0.2v1.9
			c0,0.1,0,0.2-0.1,0.3s-0.2,0.1-0.3,0.1h-0.5c-0.1,0-0.2,0-0.3-0.1s-0.1-0.2-0.1-0.3v-1.8c0-0.2,0-0.3-0.1-0.3c0,0-0.1-0.1-0.2-0.1
			c-0.1,0-0.2,0-0.3,0.1s-0.1,0.1-0.1,0.2v1.9c0,0.1,0,0.2-0.1,0.3s-0.2,0.1-0.3,0.1h-0.5c-0.1,0-0.2,0-0.3-0.1s-0.1-0.2-0.1-0.3
			v-2.7c0-0.1,0-0.2,0.1-0.3s0.2-0.1,0.3-0.1h0.4c0.1,0,0.2,0,0.3,0.1s0.1,0.2,0.1,0.3l0,0.1c0,0,0,0,0,0s0,0,0,0
			c0.1-0.2,0.3-0.3,0.4-0.4s0.3-0.1,0.5-0.1c0.2,0,0.4,0,0.5,0.1c0.1,0.1,0.2,0.2,0.4,0.4c0,0,0,0,0,0s0,0,0,0
			C25.8,45.5,26.1,45.4,26.4,45.4z"/>
		<path class="st0" d="M29,45.9c0.3-0.3,0.8-0.5,1.3-0.5s1,0.2,1.3,0.5s0.5,0.8,0.5,1.3s-0.2,1-0.5,1.3c-0.3,0.3-0.8,0.5-1.3,0.5
			s-1-0.2-1.3-0.5s-0.5-0.8-0.5-1.3C28.6,46.6,28.7,46.2,29,45.9z M30,47.9c0.1,0.1,0.2,0.2,0.4,0.2s0.3-0.1,0.4-0.2
			s0.1-0.4,0.1-0.7s0-0.6-0.1-0.7c-0.1-0.1-0.2-0.2-0.4-0.2S30,46.3,30,46.5s-0.1,0.4-0.1,0.7S29.9,47.7,30,47.9z"/>
		<path class="st0" d="M36.1,45.5c0.1,0,0.2,0,0.2,0.1c0.1,0.1,0.1,0.2,0,0.2l-0.8,2.7c0,0.1-0.1,0.2-0.2,0.3
			c-0.1,0.1-0.2,0.1-0.3,0.1h-0.9c-0.1,0-0.2,0-0.3-0.1s-0.2-0.2-0.2-0.3l-0.8-2.7c0-0.1,0-0.2,0-0.2c0.1-0.1,0.1-0.1,0.2-0.1h0.6
			c0.1,0,0.2,0,0.3,0.1s0.1,0.2,0.2,0.3l0.5,2.3c0,0,0,0,0,0c0,0,0,0,0,0l0.5-2.3c0-0.1,0.1-0.2,0.2-0.3c0.1-0.1,0.2-0.1,0.3-0.1
			H36.1z"/>
		<path class="st0" d="M38.8,45.4c1.1,0,1.7,0.6,1.7,1.8c0,0.1,0,0.2-0.1,0.3c-0.1,0.1-0.2,0.1-0.3,0.1h-1.7c0,0,0,0,0,0.1
			c0,0.2,0.1,0.3,0.3,0.4c0.1,0.1,0.3,0.1,0.6,0.1c0.2,0,0.4,0,0.7-0.1c0.1,0,0.2,0,0.3,0.1s0.1,0.1,0.1,0.2v0.1
			c0,0.1,0,0.2-0.1,0.3s-0.2,0.1-0.3,0.2c-0.3,0-0.5,0.1-0.9,0.1c-0.6,0-1.1-0.2-1.4-0.5c-0.3-0.3-0.5-0.7-0.5-1.3
			c0-0.6,0.2-1,0.5-1.3C37.8,45.5,38.3,45.4,38.8,45.4z M39.3,46.8C39.3,46.8,39.4,46.8,39.3,46.8c0.1-0.3,0-0.4-0.1-0.5
			s-0.2-0.1-0.4-0.1s-0.3,0-0.4,0.1c-0.1,0.1-0.1,0.2-0.2,0.4c0,0,0,0,0,0C38.4,46.8,39.3,46.8,39.3,46.8z"/>
		<path class="st0" d="M45.2,43.9c0.1,0,0.2,0,0.3,0.1s0.1,0.2,0.1,0.3v0.2c0,0.1,0,0.2-0.1,0.3s-0.2,0.1-0.3,0.1h-0.6
			c-0.1,0-0.2,0-0.3-0.1s-0.1-0.2-0.1-0.3v-0.2c0-0.1,0-0.2,0.1-0.3s0.2-0.1,0.3-0.1H45.2z M45.2,45.5c0.1,0,0.2,0,0.3,0.1
			s0.1,0.2,0.1,0.3v2.7c0,0.1,0,0.2-0.1,0.3s-0.2,0.1-0.3,0.1h-0.6c-0.1,0-0.2,0-0.3-0.1s-0.1-0.2-0.1-0.3v-2.7c0-0.1,0-0.2,0.1-0.3
			s0.2-0.1,0.3-0.1H45.2z"/>
		<path class="st0" d="M49.4,45.6c0.1,0,0.2,0,0.3,0.1s0.1,0.2,0.1,0.3v0.1c0,0.1,0,0.2-0.1,0.3s-0.2,0.1-0.3,0.1h-0.6
			c0,0-0.1,0-0.1,0.1v0.9c0,0.3,0,0.4,0.1,0.5c0,0.1,0.1,0.1,0.3,0.1c0.1,0,0.1,0,0.2,0c0.1,0,0.2,0,0.3,0.1
			c0.1,0.1,0.1,0.1,0.1,0.2v0.2c0,0.1,0,0.2-0.1,0.3c-0.1,0.1-0.2,0.1-0.3,0.2c-0.2,0-0.3,0-0.6,0c-0.5,0-0.8-0.1-1-0.3
			c-0.2-0.2-0.3-0.6-0.3-1.1v-1c0,0,0-0.1-0.1-0.1h-0.3c-0.1,0-0.2,0-0.3-0.1s-0.1-0.2-0.1-0.3V46c0-0.1,0-0.2,0.1-0.3
			s0.2-0.1,0.3-0.1h0.3c0,0,0.1,0,0.1-0.1v-0.8c0-0.1,0-0.2,0.1-0.3s0.2-0.1,0.3-0.1h0.5c0.1,0,0.2,0,0.3,0.1s0.1,0.2,0.1,0.3v0.8
			c0,0,0,0.1,0.1,0.1L49.4,45.6L49.4,45.6z"/>
	</g>
</g>
<g id="OBJECTS">
	<g>
		<g>
			<g>
				<g>
					<g>
						<g>
							<path class="st5" d="M71.3,28.6c0,0-0.6,2.6,1.7,2.6c2.3,0,41.8,0,43.4,0c1.7,0,2-1,2-2.6H71.3z"/>
						</g>
						<rect x="71.3" y="6.1" class="st6" width="47.2" height="22.5"/>
						<rect x="71.3" y="10.4" class="st7" width="47.2" height="18.2"/>
					</g>
					<g>
						<rect x="74" y="21.1" class="st8" width="12" height="7.5"/>
						<rect x="74" y="13.6" class="st0" width="12" height="7.5"/>
						<g>
							<rect x="86" y="21.1" class="st0" width="12" height="7.5"/>
							<path class="st9" d="M86.3,21.2C86.3,21.2,86.3,21.2,86.3,21.2c0.2,0.2,0.4,0.6,0.5,0.8c0.3,0.3,0.5,0.7,0.7,1.1
								c0.3,0.4,0.7,0.7,1.2,0.7c0.4,0,0.8,0,1.2,0.1c0.4,0.1,0.8,0.1,1.2,0c0.5,0,1.1,0,1.6,0c0.6,0,1.1,0,1.7,0
								c0.4,0,1,0.1,1.4-0.1c0.4-0.2,0.6-0.5,0.9-0.8c0.3-0.4,0.6-0.7,0.8-1.1c0.1-0.1,0.4-0.7,0.6-0.6c0.1,0.1,0.1,0.6,0,0.7
								c-0.1,0.5-0.5,1-0.8,1.4c-0.3,0.4-0.6,0.8-1,1c-0.5,0.3-1.2,0.5-1.8,0.5c-1.7,0.2-3.5,0.2-5.2,0.3c-0.5,0-1,0-1.4-0.3
								c-0.2-0.1-0.3-0.2-0.4-0.4c-0.2-0.2-0.4-0.3-0.5-0.5c-0.4-0.4-1.1-1-1.1-1.6C86,22.1,85.9,21.6,86.3,21.2z"/>
							<polygon class="st9" points="98,21.1 97.5,21.8 96.1,23.8 87.9,23.8 86.6,21.8 86,21.1 							"/>
							<polygon class="st10" points="98,21.1 97.5,21.8 86.6,21.8 86,21.1 							"/>
						</g>
						<g>
							<rect x="98.1" y="21.1" class="st0" width="12" height="7.5"/>
							<polygon class="st9" points="110.1,21.1 109.5,21.9 108.1,23.8 100,23.8 98.7,21.9 98.1,21.1 							"/>
							<polygon class="st10" points="110.1,21.1 109.5,21.9 98.7,21.9 98.1,21.1 							"/>
						</g>
						<path class="st9" d="M86,16h-6.7c-0.6,0-1.2,0.5-1.2,1.2v0.4c0,0.6,0.5,1.2,1.2,1.2H86L86,16L86,16z"/>
						<rect x="110.1" y="16.7" class="st11" width="5.5" height="11.9"/>
						<path class="st10" d="M110.1,16.7v11.9h2.6C112.7,28.6,112.7,19,110.1,16.7z"/>
						<rect x="92" y="14.1" class="st8" width="18" height="7"/>
						<rect x="92" y="15.4" class="st11" width="18" height="1.7"/>
						<rect x="92" y="14.1" class="st10" width="18" height="1.3"/>
						<line class="st12" x1="110" y1="15.4" x2="92" y2="15.4"/>
					</g>
				</g>
				<rect x="74" y="21.1" class="st10" width="12" height="1.4"/>
				<rect x="74" y="13.6" class="st10" width="12" height="1.4"/>
				<g>
					<path d="M118.7,26.2c0-1.4,0-2.8,0-4.1c0-3.3,0-6.7,0-10c0-1.3,0-2.6,0-4c0-0.5,0-0.9,0-1.4c0-0.2,0.1-0.6,0-0.7
						c-0.2-0.3-1.7-0.1-2.1-0.1c-2.2,0-4.4,0-6.5,0c-6.5,0-13,0-19.5,0c-5.5,0-11.1,0-16.6,0c-0.7,0-1.4,0-2,0c-0.1,0-0.7-0.1-0.8,0
						c-0.1,0.1,0,1.1,0,1.3c0,1.2,0,2.3,0,3.5c0,5.8,0,11.6,0,17.4c0,0.8,0,0.7,0.9,0.7c0.8,0,1.7,0,2.5,0c3,0,6,0,9,0
						c0.8,0,1.5,0,2.3,0c4.3,0,8.5,0,12.8,0c4.9,0,9.8,0,14.7,0c1,0,2,0,3,0c0.4,0,0.8,0,1.2,0c0.2,0,0.8,0.1,1,0
						c0.3-0.1,0.1,0.1,0.2-0.2c0.1-0.2,0-0.7,0-0.9C118.7,27.2,118.7,26.7,118.7,26.2z M85.8,28.4c-0.2,0.3-2,0-2.3,0
						c-3.1,0-6.2,0-9.3,0c0-1.2,0-2.5,0-3.7c0-0.8,0-1.6,0-2.4c0-0.1-0.1-0.9,0-1c0.1-0.1,0.8,0,0.9,0c0.7,0,1.4,0,2,0
						c1.8,0,3.6,0,5.3,0c0.7,0,1.4,0,2.1,0c0.2,0,1-0.1,1.1,0c0.1,0.1,0,0.5,0,0.7c0,0.3,0,0.7,0,1c-1.1,0-7,0-7.2,0
						c-0.2,0-0.3,0.1-0.3,0.2c0,0.1,0.2,0.2,0.3,0.2c0.1,0,6.2,0,7.2,0c0,0.3,0,0.5,0,0.8c-1.1,0-7,0-7.2,0c-0.2,0-0.3,0.1-0.3,0.2
						s0.2,0.2,0.3,0.2c0.1,0,6.2,0,7.2,0c0,0.3,0,0.5,0,0.8c-1.1,0-7,0-7.2,0c-0.2,0-0.3,0.1-0.3,0.2c0,0.1,0.2,0.2,0.3,0.2
						c0.1,0,6.2,0,7.2,0c0,0.4,0,0.8,0,1.1C85.8,27.2,86,28.1,85.8,28.4z M85.8,16.5c0.1,0.6,0,1.4,0,2.1c-1.1,0-2.3,0-3.4,0
						c-0.7,0-1.4,0-2.2,0c-0.4,0-1,0.1-1.4-0.2c-1.1-0.6-0.5-2.1,0.6-2.2c0.4,0,0.7,0,1.1,0c1.5,0,3,0,4.5,0c0.1,0,0.5-0.1,0.6,0
						C85.9,16.2,85.8,16.2,85.8,16.5z M85.8,15.8c-1.8,0-3.6,0-5.5,0c-0.9,0-1.9-0.1-2.3,1c-0.5,1.2,0.5,2.2,1.7,2.2c1,0,2,0,2.9,0
						c0.6,0,1.1,0,1.7,0c0.4,0,0.7,0,1.1,0c0.1,0,0.4,0,0.4,0.3c0,0.3,0.1,1.3,0,1.5c-0.1,0.2-0.6,0.1-1,0.1c-2.2,0-4.3,0-6.5,0
						c-1,0-2,0-3,0c-0.2,0-1,0.1-1.1,0c-0.1-0.1,0-0.5,0-0.6c0-0.5,0-1,0-1.5c0-1.2,0-2.3,0-3.5c0-0.2,0-1.3,0.2-1.4
						c0.2-0.2,1.2-0.1,1.4-0.1c2.5,0,5,0,7.5,0c0.5,0,1,0,1.5,0c0.2,0,0.7-0.1,0.9,0C86,13.9,85.8,15.3,85.8,15.8z M97.8,28.4
						c-0.2,0.1-0.9,0-1.1,0c-0.7,0-1.4,0-2,0c-1.7,0-3.5,0-5.2,0c-1.1,0-2.2,0-3.3,0c0-2.2,0-4.5,0-6.7c0.3,0.4,0.5,0.7,0.8,1.1
						c0.2,0.3,0.5,0.9,0.8,1.1c0.5,0.3,1.5,0.1,2,0.1c1.3,0,2.6,0,3.9,0c0.5,0,1,0,1.6,0c0.2,0,0.6,0.1,0.8,0
						c0.3-0.1,0.6-0.7,0.8-0.9c0.3-0.5,0.6-0.9,1-1.4c0,1.2,0,2.5,0,3.7c0,0.8,0,1.6,0,2.4C97.8,27.9,97.9,28.3,97.8,28.4z
						 M109.6,20.9c-0.4,0.1-1.2,0-1.6,0c-0.9,0-1.7,0-2.6,0c-1.8,0-3.6,0-5.5,0c-2.6,0-5.1,0-7.7,0c0-1.7,0-3.5,0-5.2
						c5.7,0,11.4,0,17.1,0c0.1,0,0.4,0,0.5,0c0.1,0.1,0,0.6,0,0.6c0,0.5,0,0.9,0,1.4c0,0.9,0,1.8,0,2.7
						C109.8,20.8,109.9,20.8,109.6,20.9z M109.7,21.3c-0.2,0.3-0.5,0.7-0.7,1c-0.2,0.3-0.6,1.1-0.9,1.3c-0.4,0.2-1.4,0-1.8,0
						c-1.3,0-2.6,0-3.9,0c-0.5,0-1,0-1.6,0c-0.2,0-0.6,0.1-0.7,0c-0.3-0.1-0.6-0.8-0.7-1c-0.3-0.4-0.6-0.9-0.9-1.3
						C102.2,21.3,105.9,21.3,109.7,21.3z M109.8,15.3c-5.1,0-10.3,0-15.4,0c-0.7,0-1.5,0-2.2,0c0-0.4-0.1-0.8,0.2-1
						c0.3-0.1,0.8,0,1.1,0c1.5,0,2.9,0,4.4,0c3.4,0,6.8,0,10.2,0c0.4,0,1.6,0,1.7,0C109.9,14.4,109.8,15.1,109.8,15.3z M97.7,21.3
						c-0.2,0.3-0.5,0.7-0.7,1c-0.2,0.3-0.6,1.1-0.9,1.3c-0.4,0.2-1.4,0-1.8,0c-1.3,0-2.6,0-3.9,0c-0.5,0-1,0-1.6,0
						c-0.2,0-0.6,0.1-0.7,0c-0.3-0.1-0.6-0.8-0.7-1c-0.3-0.4-0.6-0.9-0.9-1.3C90.2,21.3,93.9,21.3,97.7,21.3z M109.8,28.4
						c-0.2,0.1-0.9,0-1.1,0c-0.7,0-1.4,0-2,0c-1.7,0-3.5,0-5.2,0c-1.1,0-2.2,0-3.3,0c0-2.2,0-4.5,0-6.7c0.3,0.4,0.5,0.7,0.8,1.1
						c0.2,0.3,0.5,0.9,0.8,1.1c0.5,0.3,1.5,0.1,2,0.1c1.3,0,2.6,0,3.9,0c0.5,0,1,0,1.6,0c0.2,0,0.6,0.1,0.8,0
						c0.3-0.1,0.6-0.7,0.8-0.9c0.3-0.5,0.6-0.9,1-1.4c0,1.2,0,2.5,0,3.7c0,0.8,0,1.6,0,2.4C109.9,27.9,109.9,28.3,109.8,28.4z
						 M115.4,28.4c-0.1,0.1-0.8,0-1,0c-1.4,0-2.8,0-4.1,0c0-2.4,0-4.7,0-7.1c0-0.9,0-1.7,0-2.6c0-0.3-0.2-1.5,0-1.7
						c0.1-0.1,0.7,0,0.9,0c0.8,0,1.6,0,2.4,0c0.4,0,1.4-0.2,1.7,0c0.3,0.2,0.1,1.3,0.1,1.7c0,2.9,0,5.8,0,8.7
						C115.4,27.5,115.5,28.2,115.4,28.4z M118.2,28.4c-0.2,0.1-1.1,0-1.3,0c-0.2,0-1,0.1-1.1,0c-0.1-0.1,0-0.9,0-1
						c0-0.9,0-1.8,0-2.6c0-2.1,0-4.2,0-6.3c0-0.4,0.2-1.4,0-1.7c-0.1-0.2-0.5-0.1-0.9-0.1c-1,0-2,0-3,0c-0.3,0-1.5,0.2-1.6,0
						c-0.1-0.2,0-1,0-1.2c0-0.2,0.2-1.2,0-1.3c-0.1-0.1-0.5,0-0.6,0c-3.7,0-7.4,0-11.1,0c-1.8,0-3.6,0-5.3,0c-0.3,0-1-0.1-1.2,0
						c-0.2,0.1-0.1,0.4-0.1,0.7c0,1.9,0,3.8,0,5.7c0,0.6,0.1,0.5-0.5,0.5c-1,0-1.9,0-2.9,0c-0.5,0-0.9,0-1.4,0c-0.1,0-0.7,0.1-0.8,0
						c-0.2-0.2,0-1.7,0-2.1c0-1.4,0-2.9,0-4.3c0-0.2,0.1-1-0.3-1c-0.1,0-1.2,0-1.8,0c-2.1,0-4.2,0-6.3,0c-0.9,0-1.8,0-2.7,0
						c-0.2,0-1,0-1.1,0.1c-0.1,0.1-0.1,1-0.1,1.2c0,1,0,2.1,0,3.1c0,3.1,0,6.2,0,9.3c0,0.2,0.1,1.2,0,1.3c-0.2,0.1-1,0-1.2,0
						c-0.4,0-0.7,0-1.1,0c0-6.7,0-13.3,0-20c0-0.5,0-1.1,0-1.6c0-0.1-0.1-0.5,0-0.5c0.1-0.1,1.1,0,1.3,0c2.7,0,5.4,0,8.2,0
						c8.5,0,17,0,25.5,0c3.1,0,6.3,0,9.4,0c0.7,0,1.6-0.2,2.2,0c0.4,0.1,0.3,0.2,0.3,0.7c0,7,0,14,0,20.9
						C118.3,28.2,118.4,28.3,118.2,28.4z"/>
				</g>
			</g>
		</g>
	</g>
</g>
</svg>
