<?xml version="1.0" encoding="utf-8"?>
<!-- Generator: Adobe Illustrator 23.0.5, SVG Export Plug-In . SVG Version: 6.00 Build 0)  -->
<svg version="1.1" id="Layer_1" xmlns="http://www.w3.org/2000/svg" xmlns:xlink="http://www.w3.org/1999/xlink" x="0px" y="0px"
	 viewBox="0 0 253 144" enable-background="new 0 0 253 144" xml:space="preserve">
<g>
	<g>
		<g>
			<g>
				<path fill="#625D74" d="M203.29,96.1H51.51c13.17,0,23.65,9.88,23.65,22.45c0,0.3,0,0.9,0,1.2h104.18c0-0.3,0-0.9,0-1.2
					C179.34,105.98,190.12,96.1,203.29,96.1z"/>
				<path fill="#615B75" d="M18.87,119.45h8.68c0-0.3,0-0.9,0-1.2c0-12.27,10.78-22.45,23.65-22.45H15.88v20.36
					C15.88,117.95,17.38,119.45,18.87,119.45z"/>
			</g>
			<path fill="#554F5D" d="M51.51,96.1c-13.17,0-23.65,10.78-23.65,23.95S38.63,144,51.51,144s23.65-10.78,23.65-23.95
				S64.68,96.1,51.51,96.1z M51.51,135.32c-8.68,0-15.57-6.89-15.57-15.57c0-8.68,6.89-15.57,15.57-15.57
				c8.68,0,15.57,6.89,15.57,15.57C67.37,128.43,60.19,135.32,51.51,135.32z"/>
			<path fill="#FCB90F" d="M225.14,22.75h-40.72c-1.8,0-3.29,1.5-3.29,3.29v66.76c0,1.8,1.5,2.99,3.29,2.99h56.88v-4.79
				c0-1.8,1.5-2.99,3.29-2.99h5.69v-5.99c0-1.5-0.3-2.69-0.6-3.89l-20.06-52.39C228.74,23.65,226.94,22.75,225.14,22.75z"/>
			<path fill="#625D74" d="M241.31,97.3v-1.2h-35.03v0.3c10.78,1.8,19.16,10.48,20.06,21.56h15.27v-11.98h8.68v-5.69h-5.69
				C242.81,100.29,241.31,99.09,241.31,97.3z"/>
			<path fill="#FCB90F" d="M250.29,105.98L250.29,105.98c1.5,0,2.4,1.2,2.4,2.4v8.68c0,1.8-1.5,2.99-3.29,2.99h-5.09
				c-1.8,0-3.29-1.5-3.29-2.99v-11.38h9.28V105.98z"/>
			<path fill="#554F5D" d="M202.69,96.1c-13.17,0-23.65,10.78-23.65,23.95S189.82,144,202.69,144s23.65-10.78,23.65-23.95
				S215.56,96.1,202.69,96.1z M202.69,135.32c-8.68,0-15.57-6.89-15.57-15.57c0-8.68,6.89-15.57,15.57-15.57s15.57,6.89,15.57,15.57
				C218.26,128.43,211.07,135.32,202.69,135.32z"/>
			<path fill="#615D6B" d="M188.62,57.18V34.73c0-1.8,1.5-3.29,3.29-3.29h31.73c1.2,0,2.4,0.9,2.99,2.1l7.78,20.96
				c1.2,2.99-1.2,5.99-4.19,5.99h-38.32C190.12,60.17,188.62,58.98,188.62,57.18z"/>
			<g>
				<path fill="#FCB90F" d="M0.31,6.29v92.21c0,3.59,2.99,6.29,6.29,6.29h26.64c4.49-5.39,11.38-8.68,18.86-8.68
					s14.37,3.29,18.86,8.68h97.9c3.59,0,6.29-2.69,6.29-6.29V6.29c0-3.59-2.99-6.29-6.29-6.29H6.6C3.01,0,0.31,2.99,0.31,6.29z"/>
			</g>
		</g>
	</g>
	<g>
		<g>
			<g>
				<g>
					<g>
						<g>
							<path fill="#A6AFB2" d="M17.08,82.63c0,0-1.8,7.78,5.09,7.78c6.89,0,125.14,0,129.93,0c5.09,0,5.99-2.99,5.99-7.78H17.08z"/>
						</g>
						<rect x="17.08" y="15.27" fill="#6B6B6B" width="141.31" height="67.36"/>
						<rect x="17.08" y="28.14" fill="#424242" width="141.31" height="54.49"/>
					</g>
					<g>
						<rect x="25.16" y="60.17" fill="#F2BC86" width="35.93" height="22.45"/>
						<rect x="25.16" y="37.72" fill="#FCB90F" width="35.93" height="22.45"/>
						<g>
							<rect x="61.09" y="60.17" fill="#FCB90F" width="35.93" height="22.45"/>
							<path fill="#FCD275" d="M61.98,60.47L61.98,60.47c0.6,0.6,1.2,1.8,1.5,2.4c0.9,0.9,1.5,2.1,2.1,3.29
								c0.9,1.2,2.1,2.1,3.59,2.1c1.2,0,2.4,0,3.59,0.3c1.2,0.3,2.4,0.3,3.59,0c1.5,0,3.29,0,4.79,0c1.8,0,3.29,0,5.09,0
								c1.2,0,2.99,0.3,4.19-0.3s1.8-1.5,2.69-2.4c0.9-1.2,1.8-2.1,2.4-3.29c0.3-0.3,1.2-2.1,1.8-1.8c0.3,0.3,0.3,1.8,0,2.1
								c-0.3,1.5-1.5,2.99-2.4,4.19c-0.9,1.2-1.8,2.4-2.99,2.99c-1.5,0.9-3.59,1.5-5.39,1.5c-5.09,0.6-10.48,0.6-15.57,0.9
								c-1.5,0-2.99,0-4.19-0.9c-0.6-0.3-0.9-0.6-1.2-1.2c-0.6-0.6-1.2-0.9-1.5-1.5c-1.2-1.2-3.29-2.99-3.29-4.79
								C61.09,63.17,60.79,61.67,61.98,60.47z"/>
							<polygon fill="#FCD275" points="97.01,60.17 95.51,62.27 91.32,68.26 66.77,68.26 62.88,62.27 61.09,60.17 							"/>
							<polygon opacity="0.3" fill="#FFFFFF" enable-background="new    " points="97.01,60.17 95.51,62.27 62.88,62.27 
								61.09,60.17 							"/>
						</g>
						<g>
							<rect x="97.31" y="60.17" fill="#FCB90F" width="35.93" height="22.45"/>
							<polygon fill="#FCD275" points="133.24,60.17 131.44,62.57 127.25,68.26 103,68.26 99.11,62.57 97.31,60.17 							"/>
							<polygon opacity="0.3" fill="#FFFFFF" enable-background="new    " points="133.24,60.17 131.44,62.57 99.11,62.57 
								97.31,60.17 							"/>
						</g>
						<path fill="#FCD275" d="M61.09,44.91H41.03c-1.8,0-3.59,1.5-3.59,3.59v1.2c0,1.8,1.5,3.59,3.59,3.59h20.06V44.91L61.09,44.91z
							"/>
						<rect x="133.24" y="47" fill="#E2A771" width="16.47" height="35.63"/>
						<path opacity="0.3" fill="#FFFFFF" enable-background="new    " d="M133.24,47v35.63h7.78
							C141.02,82.63,141.02,53.89,133.24,47z"/>
						<rect x="79.05" y="39.22" fill="#F2BC86" width="53.89" height="20.96"/>
						<rect x="79.05" y="43.11" fill="#E2A771" width="53.89" height="5.09"/>
						<rect x="79.05" y="39.22" opacity="0.3" fill="#FFFFFF" enable-background="new    " width="53.89" height="3.89"/>
						<line fill="none" x1="132.94" y1="43.11" x2="79.05" y2="43.11"/>
					</g>
				</g>
				<rect x="25.16" y="60.17" opacity="0.3" fill="#FFFFFF" enable-background="new    " width="35.93" height="4.19"/>
				<rect x="25.16" y="37.72" opacity="0.3" fill="#FFFFFF" enable-background="new    " width="35.93" height="4.19"/>
				<g>
					<path d="M158.98,75.44c0-4.19,0-8.38,0-12.27c0-9.88,0-20.06,0-29.94c0-3.89,0-7.78,0-11.98c0-1.5,0-2.69,0-4.19
						c0-0.6,0.3-1.8,0-2.1c-0.6-0.9-5.09-0.3-6.29-0.3c-6.59,0-13.17,0-19.46,0c-19.46,0-38.92,0-58.38,0c-16.47,0-33.23,0-49.7,0
						c-2.1,0-4.19,0-5.99,0c-0.3,0-2.1-0.3-2.4,0c-0.3,0.3,0,3.29,0,3.89c0,3.59,0,6.89,0,10.48c0,17.36,0,34.73,0,52.09
						c0,2.4,0,2.1,2.69,2.1c2.4,0,5.09,0,7.48,0c8.98,0,17.96,0,26.94,0c2.4,0,4.49,0,6.89,0c12.87,0,25.45,0,38.32,0
						c14.67,0,29.34,0,44.01,0c2.99,0,5.99,0,8.98,0c1.2,0,2.4,0,3.59,0c0.6,0,2.4,0.3,2.99,0c0.9-0.3,0.3,0.3,0.6-0.6
						c0.3-0.6,0-2.1,0-2.69C158.98,78.44,158.98,76.94,158.98,75.44z M60.49,82.03c-0.6,0.9-5.99,0-6.89,0c-9.28,0-18.56,0-27.84,0
						c0-3.59,0-7.48,0-11.08c0-2.4,0-4.79,0-7.19c0-0.3-0.3-2.69,0-2.99s2.4,0,2.69,0c2.1,0,4.19,0,5.99,0c5.39,0,10.78,0,15.87,0
						c2.1,0,4.19,0,6.29,0c0.6,0,2.99-0.3,3.29,0c0.3,0.3,0,1.5,0,2.1c0,0.9,0,2.1,0,2.99c-3.29,0-20.96,0-21.56,0s-0.9,0.3-0.9,0.6
						s0.6,0.6,0.9,0.6c0.3,0,18.56,0,21.56,0c0,0.9,0,1.5,0,2.4c-3.29,0-20.96,0-21.56,0s-0.9,0.3-0.9,0.6s0.6,0.6,0.9,0.6
						c0.3,0,18.56,0,21.56,0c0,0.9,0,1.5,0,2.4c-3.29,0-20.96,0-21.56,0s-0.9,0.3-0.9,0.6s0.6,0.6,0.9,0.6c0.3,0,18.56,0,21.56,0
						c0,1.2,0,2.4,0,3.29C60.49,78.44,61.09,81.13,60.49,82.03z M60.49,46.4c0.3,1.8,0,4.19,0,6.29c-3.29,0-6.89,0-10.18,0
						c-2.1,0-4.19,0-6.59,0c-1.2,0-2.99,0.3-4.19-0.6c-3.29-1.8-1.5-6.29,1.8-6.59c1.2,0,2.1,0,3.29,0c4.49,0,8.98,0,13.47,0
						c0.3,0,1.5-0.3,1.8,0C60.79,45.51,60.49,45.51,60.49,46.4z M60.49,44.31c-5.39,0-10.78,0-16.47,0c-2.69,0-5.69-0.3-6.89,2.99
						c-1.5,3.59,1.5,6.59,5.09,6.59c2.99,0,5.99,0,8.68,0c1.8,0,3.29,0,5.09,0c1.2,0,2.1,0,3.29,0c0.3,0,1.2,0,1.2,0.9
						c0,0.9,0.3,3.89,0,4.49c-0.3,0.6-1.8,0.3-2.99,0.3c-6.59,0-12.87,0-19.46,0c-2.99,0-5.99,0-8.98,0c-0.6,0-2.99,0.3-3.29,0
						s0-1.5,0-1.8c0-1.5,0-2.99,0-4.49c0-3.59,0-6.89,0-10.48c0-0.6,0-3.89,0.6-4.19c0.6-0.6,3.59-0.3,4.19-0.3
						c7.48,0,14.97,0,22.45,0c1.5,0,2.99,0,4.49,0c0.6,0,2.1-0.3,2.69,0C61.09,38.62,60.49,42.81,60.49,44.31z M96.41,82.03
						c-0.6,0.3-2.69,0-3.29,0c-2.1,0-4.19,0-5.99,0c-5.09,0-10.48,0-15.57,0c-3.29,0-6.59,0-9.88,0c0-6.59,0-13.47,0-20.06
						c0.9,1.2,1.5,2.1,2.4,3.29c0.6,0.9,1.5,2.69,2.4,3.29c1.5,0.9,4.49,0.3,5.99,0.3c3.89,0,7.78,0,11.68,0c1.5,0,2.99,0,4.79,0
						c0.6,0,1.8,0.3,2.4,0c0.9-0.3,1.8-2.1,2.4-2.69c0.9-1.5,1.8-2.69,2.99-4.19c0,3.59,0,7.48,0,11.08c0,2.4,0,4.79,0,7.19
						C96.41,80.53,96.71,81.73,96.41,82.03z M131.74,59.58c-1.2,0.3-3.59,0-4.79,0c-2.69,0-5.09,0-7.78,0c-5.39,0-10.78,0-16.47,0
						c-7.78,0-15.27,0-23.05,0c0-5.09,0-10.48,0-15.57c17.06,0,34.13,0,51.19,0c0.3,0,1.2,0,1.5,0c0.3,0.3,0,1.8,0,1.8
						c0,1.5,0,2.69,0,4.19c0,2.69,0,5.39,0,8.08C132.34,59.28,132.64,59.28,131.74,59.58z M132.04,60.77c-0.6,0.9-1.5,2.1-2.1,2.99
						c-0.6,0.9-1.8,3.29-2.69,3.89c-1.2,0.6-4.19,0-5.39,0c-3.89,0-7.78,0-11.68,0c-1.5,0-2.99,0-4.79,0c-0.6,0-1.8,0.3-2.1,0
						c-0.9-0.3-1.8-2.4-2.1-2.99c-0.9-1.2-1.8-2.69-2.69-3.89C109.59,60.77,120.66,60.77,132.04,60.77z M132.34,42.81
						c-15.27,0-30.84,0-46.1,0c-2.1,0-4.49,0-6.59,0c0-1.2-0.3-2.4,0.6-2.99c0.9-0.3,2.4,0,3.29,0c4.49,0,8.68,0,13.17,0
						c10.18,0,20.36,0,30.54,0c1.2,0,4.79,0,5.09,0C132.64,40.12,132.34,42.21,132.34,42.81z M96.11,60.77
						c-0.6,0.9-1.5,2.1-2.1,2.99c-0.6,0.9-1.8,3.29-2.69,3.89c-1.2,0.6-4.19,0-5.39,0c-3.89,0-7.78,0-11.68,0c-1.5,0-2.99,0-4.79,0
						c-0.6,0-1.8,0.3-2.1,0c-0.9-0.3-1.8-2.4-2.1-2.99c-0.9-1.2-1.8-2.69-2.69-3.89C73.66,60.77,84.74,60.77,96.11,60.77z
						 M132.34,82.03c-0.6,0.3-2.69,0-3.29,0c-2.1,0-4.19,0-5.99,0c-5.09,0-10.48,0-15.57,0c-3.29,0-6.59,0-9.88,0
						c0-6.59,0-13.47,0-20.06c0.9,1.2,1.5,2.1,2.4,3.29c0.6,0.9,1.5,2.69,2.4,3.29c1.5,0.9,4.49,0.3,5.99,0.3c3.89,0,7.78,0,11.68,0
						c1.5,0,2.99,0,4.79,0c0.6,0,1.8,0.3,2.4,0c0.9-0.3,1.8-2.1,2.4-2.69c0.9-1.5,1.8-2.69,2.99-4.19c0,3.59,0,7.48,0,11.08
						c0,2.4,0,4.79,0,7.19C132.64,80.53,132.64,81.73,132.34,82.03z M149.1,82.03c-0.3,0.3-2.4,0-2.99,0c-4.19,0-8.38,0-12.27,0
						c0-7.19,0-14.07,0-21.26c0-2.69,0-5.09,0-7.78c0-0.9-0.6-4.49,0-5.09c0.3-0.3,2.1,0,2.69,0c2.4,0,4.79,0,7.19,0
						c1.2,0,4.19-0.6,5.09,0c0.9,0.6,0.3,3.89,0.3,5.09c0,8.68,0,17.36,0,26.05C149.1,79.33,149.4,81.43,149.1,82.03z M157.49,82.03
						c-0.6,0.3-3.29,0-3.89,0c-0.6,0-2.99,0.3-3.29,0c-0.3-0.3,0-2.69,0-2.99c0-2.69,0-5.39,0-7.78c0-6.29,0-12.57,0-18.86
						c0-1.2,0.6-4.19,0-5.09c-0.3-0.6-1.5-0.3-2.69-0.3c-2.99,0-5.99,0-8.98,0c-0.9,0-4.49,0.6-4.79,0c-0.3-0.6,0-2.99,0-3.59
						s0.6-3.59,0-3.89c-0.3-0.3-1.5,0-1.8,0c-11.08,0-22.15,0-33.23,0c-5.39,0-10.78,0-15.87,0c-0.9,0-2.99-0.3-3.59,0
						c-0.6,0.3-0.3,1.2-0.3,2.1c0,5.69,0,11.38,0,17.06c0,1.8,0.3,1.5-1.5,1.5c-2.99,0-5.69,0-8.68,0c-1.5,0-2.69,0-4.19,0
						c-0.3,0-2.1,0.3-2.4,0c-0.6-0.6,0-5.09,0-6.29c0-4.19,0-8.68,0-12.87c0-0.6,0.3-2.99-0.9-2.99c-0.3,0-3.59,0-5.39,0
						c-6.29,0-12.57,0-18.86,0c-2.69,0-5.39,0-8.08,0c-0.6,0-2.99,0-3.29,0.3s-0.3,2.99-0.3,3.59c0,2.99,0,6.29,0,9.28
						c0,9.28,0,18.56,0,27.84c0,0.6,0.3,3.59,0,3.89c-0.6,0.3-2.99,0-3.59,0c-1.2,0-2.1,0-3.29,0c0-20.06,0-39.82,0-59.88
						c0-1.5,0-3.29,0-4.79c0-0.3-0.3-1.5,0-1.5c0.3-0.3,3.29,0,3.89,0c8.08,0,16.17,0,24.55,0c25.45,0,50.89,0,76.34,0
						c9.28,0,18.86,0,28.14,0c2.1,0,4.79-0.6,6.59,0c1.2,0.3,0.9,0.6,0.9,2.1c0,20.96,0,41.91,0,62.57
						C157.78,81.43,158.08,81.73,157.49,82.03z"/>
				</g>
			</g>
		</g>
	</g>
</g>
</svg>
